<?xml version="1.0" standalone="no"?>
<!DOCTYPE svg PUBLIC "-//W3C//DTD SVG 1.1//EN" "http://www.w3.org/Graphics/SVG/1.1/DTD/svg11.dtd" >
<svg xmlns="http://www.w3.org/2000/svg">
<metadata>
Created by FontForge 20120731 at Thu Feb  9 16:11:13 2017
 By admin
</metadata>
<defs>
<font id="icon_club" horiz-adv-x="1024" >
  <font-face 
    font-family="icon_club"
    font-weight="500"
    font-stretch="normal"
    units-per-em="1024"
    panose-1="2 0 6 3 0 0 0 0 0 0"
    ascent="896"
    descent="-128"
    x-height="792"
    bbox="0 -205 1421 896.2"
    underline-thickness="0"
    underline-position="0"
    unicode-range="U+0078-E6EA"
  />
<missing-glyph 
 />
    <glyph glyph-name=".notdef" 
 />
    <glyph glyph-name=".notdef" 
 />
    <glyph glyph-name=".null" horiz-adv-x="0" 
 />
    <glyph glyph-name="nonmarkingreturn" horiz-adv-x="341" 
 />
    <glyph glyph-name="glyph3" unicode="x" horiz-adv-x="1001" 
d="M281 543q-27 -1 -53 -1h-83q-18 0 -36.5 -6t-32.5 -18.5t-23 -32t-9 -45.5v-76h912v41q0 16 -0.5 30t-0.5 18q0 13 -5 29t-17 29.5t-31.5 22.5t-49.5 9h-133v-97h-438v97zM955 310v-52q0 -23 0.5 -52t0.5 -58t-10.5 -47.5t-26 -30t-33 -16t-31.5 -4.5q-14 -1 -29.5 -0.5
t-29.5 0.5h-32l-45 128h-439l-44 -128h-29h-34q-20 0 -45 1q-25 0 -41 9.5t-25.5 23t-13.5 29.5t-4 30v167h911zM163 247q-12 0 -21 -8.5t-9 -21.5t9 -21.5t21 -8.5q13 0 22 8.5t9 21.5t-9 21.5t-22 8.5zM316 123q-8 -26 -14 -48q-5 -19 -10.5 -37t-7.5 -25t-3 -15t1 -14.5
t9.5 -10.5t21.5 -4h37h67h81h80h64h36q23 0 34 12t2 38q-5 13 -9.5 30.5t-9.5 34.5q-5 19 -11 39h-368zM336 498v228q0 11 2.5 23t10 21.5t20.5 15.5t34 6h188q31 0 51.5 -14.5t20.5 -52.5v-227h-327z" />
    <glyph glyph-name="weixin" unicode="&#xe631;" horiz-adv-x="1000" 
d="M676 567q16 0 34 -2q-23 106 -123.5 176t-229.5 70q-95 0 -175.5 -39.5t-127.5 -108t-47 -150.5q0 -138 140 -236l-35 -106l122 62q89 -18 123 -18q15 0 33 2q-11 37 -11 73q0 115 86.5 196t210.5 81zM485.5 669q22.5 0 38.5 -16t16 -38.5t-16 -38t-38.5 -15.5t-38 15.5
t-15.5 38t15.5 38.5t38 16zM240.5 560q-22.5 0 -38 15.5t-15.5 38t15.5 38.5t38 16t38.5 -16t16 -38.5t-16 -38t-38.5 -15.5zM994 293q0 68 -41.5 127t-110 93t-146.5 34q-124 0 -211 -74.5t-87 -179.5t87 -179.5t211 -74.5q35 0 105 18l96 -53l-26 87q123 92 123 202z
M605 332q-16 0 -27.5 11.5t-11.5 27.5t11.5 27t27.5 11t27 -11t11 -27t-11 -27.5t-27 -11.5zM797 330q-16 0 -27 11.5t-11 27.5t11 27t27 11t27.5 -11t11.5 -27t-11.5 -27.5t-27.5 -11.5z" />
    <glyph glyph-name="weixin2" unicode="&#xe632;" 
d="M572 384q-8 0 -14.5 -6.5t-6.5 -14.5q0 -7 6.5 -13t14.5 -6q11 0 18.5 5.5t7.5 13.5q0 9 -7.5 15t-18.5 6v0zM504 483q12 0 19.5 7t7.5 19t-7.5 18.5t-19.5 6.5t-21 -7t-9 -18q0 -12 9 -19t21 -7v0zM512 834q-91 0 -174.5 -36t-143.5 -96t-96 -143.5t-36 -175t36 -174.5
t96 -143.5t143.5 -96t175 -35.5t174.5 35.5t143.5 96t96 143.5t35.5 174.5t-35.5 175t-96 143.5t-143.5 96t-175 36v0zM427 270q-31 0 -72 11l-74 -37l21 63q-83 58 -83 139q0 75 61 125.5t147 50.5q77 0 136.5 -41t72.5 -104q-11 2 -20 2q-74 0 -125 -48t-51 -117
q0 -20 6 -44h-19v0zM733 198l15 -53l-56 32q-53 -11 -63 -11q-74 0 -125 44t-51 106.5t51 107t125 44.5q70 0 123 -44.5t53 -106.5q0 -66 -72 -119v0zM359 534q-12 0 -21.5 -7t-9.5 -18t9.5 -18.5t21.5 -7.5q11 0 19 7t8 19q0 11 -8 18t-19 7v0zM687 384q-9 0 -15 -6t-6 -15
q0 -7 6.5 -13t14.5 -6q10 0 17.5 5.5t7.5 13.5q0 9 -7 15t-18 6v0zM687 384z" />
    <glyph glyph-name="ordinaryprint" unicode="&#xe6cc;" 
d="M945 583h-148v162h-570v-162h-148q-20 0 -33.5 -13.5t-13.5 -33.5v-397h195v-67l217 -217h353v282h195v399q0 20 -13.5 33.5t-33.5 13.5zM282 690h460v-107h-460v107zM851 214h-54v108h-55v-412h-226q-23 0 -35.5 20t-14.5 48.5t-0.5 57t4.5 48.5l4 20q-4 -1 -11 -2.5
t-26.5 -4.5t-37.5 -4.5t-40 -0.5t-38 6t-27 17t-12 29v178h-55v-106h-54v185h678v-187zM890.5 468q-15.5 0 -26.5 11t-11 26.5t11 26.5t26.5 11t26.5 -11t11 -26.5t-11 -26.5t-26.5 -11zM677 315h-317v-55h317v55zM360 152h317v55h-317v-55z" />
    <glyph glyph-name="help" unicode="&#xe624;" 
d="M898 384q1 -104 -51 -192.5t-140.5 -139t-192.5 -49.5q-102 1 -189 52t-137.5 138.5t-50.5 190.5q0 104 51.5 192t140 139t191.5 50t190.5 -52t138 -139t49.5 -190zM368 470l3 -1h85q3 0 4 5q3 22 5 27q10 29 35 35q15 3 32 1q22 -3 34.5 -24t4.5 -42q-9 -25 -30 -39
q-37 -24 -57 -45q-12 -11 -15 -23q-3 -10 -5 -51q-1 -3 4 -3h40.5h38.5q5 0 5 5q1 10 2 16q4 19 27 36q39 29 48 36q36 30 40 75q5 55 -28 91q-21 24 -59 36q-47 16 -101 8q-40 -6 -68 -31q-33 -29 -41 -78q-1 -2 -4 -34zM511.5 152q24.5 0 40 15.5t16.5 39.5q0 25 -16 40.5
t-41 15.5q-24 0 -40 -15.5t-16 -39.5t16 -40t40.5 -16z" />
    <glyph glyph-name="tianjia" unicode="&#xe61e;" 
d="M757.5 295q-62.5 0 -106.5 -44t-44 -106t44 -106t106.5 -44t106 44t43.5 106t-43.5 106t-106 44zM817 115h-30v-30q0 -12 -8.5 -21t-21 -9t-21.5 9t-9 21v30h-30q-12 0 -21 9t-9 21.5t9 21t21 8.5h30v30q0 13 9 21.5t21.5 8.5t21 -8.5t8.5 -21.5v-30h30q13 0 21.5 -8.5
t8.5 -21t-8.5 -21.5t-21.5 -9zM550 115h-362v60h362q4 32 18 60h-380v60h423q61 60 146 60q15 0 30 -2v362h-120v-120h-60v180h-479v-780h483q-51 50 -61 120zM188 595h300v-60h-300v60zM188 415h479v-60h-479v60z" />
    <glyph glyph-name="loudouhover" unicode="&#xe61a;" 
d="M68 693l341 -452v-333h205v333l341 452h-887z" />
    <glyph glyph-name="yuanzhuanhuan" unicode="&#xe60d;" 
d="M512 788q101 0 193 -39.5t158.5 -106t106 -158.5t39.5 -193t-39.5 -193t-106 -158.5t-158.5 -105.5t-193 -39t-193 39t-158.5 105.5t-106 158.5t-39.5 193t39.5 193t106 158.5t158.5 106t193 39.5z" />
    <glyph glyph-name="xiazai" unicode="&#xe61b;" 
d="M373 546q-3 3 -7.5 6.5t-19.5 11t-31 11t-40 0t-47 -17.5q-21 -13 -35 -31t-19.5 -35t-7.5 -32t-1 -24l1 -9q-7 -1 -18 -4t-40 -18t-50.5 -35t-39.5 -58.5t-18 -86.5q0 -34 11 -62t26 -45.5t35.5 -30.5t37.5 -19t35.5 -9.5t25 -4t9.5 -0.5v0l353 1l-164 148l91 -1v179
l116 1l1 -180l88 -1l-132 -147h298q4 0 10 0.5t23.5 3.5t33.5 8.5t37 18t37 28.5t29 42.5t18 59.5q3 50 -13 90t-37.5 61t-50 36.5t-40 19t-18.5 4.5v0v9.5t-0.5 23.5t-3.5 36t-9.5 42.5t-16.5 46t-27 44.5t-38.5 40.5t-54 30.5t-70.5 18q-151 15 -235 -109q-23 -33 -32 -61
z" />
    <glyph glyph-name="shangchuan" unicode="&#xe61c;" 
d="M464 38v169h-106l164 200l164 -199l-108 -1v-169h254q3 0 8.5 0.5t22 3.5t32 9t36 18.5t36.5 30t31 46t22 63.5q0 32 -0.5 43.5t-2.5 26t-2.5 16t-7 16.5t-9.5 24q-20 28 -28 38t-30 26t-58 32q28 122 -51 219q-43 53 -109 71t-117 8q-33 -6 -62.5 -19.5t-63 -46
t-53.5 -78.5q-27 29 -61.5 44t-90.5 15q-34 -2 -76.5 -30.5t-61.5 -82.5q-18 -45 -3 -103q-44 -14 -85 -58q-25 -26 -39.5 -75t-2.5 -99q32 -132 170 -158q67 -1 288 0v0v0z" />
    <glyph glyph-name="morentouxiang01" unicode="&#xe623;" 
d="M0 896v-1024h1024v1024h-1024zM74 -112q24 103 56 110q70 15 124 40.5t81.5 49t45 48t22 36.5t4.5 15q0 22 -4.5 48.5t-4.5 37.5q-10 14 -24 58.5t-14 45.5q-5 -2 -9 -2q-16 0 -24.5 22t-16.5 62q-1 4 -1 6q-6 32 0 49q0 1 2.5 1h5t2.5 1q0 137 37 200.5t126 74.5
q19 1 28 2h2h-2l32 -2q89 -11 126 -75t37 -200q0 -1 5 -1t5 -1q6 -17 0 -49q0 -2 -1 -5q-4 -20 -6.5 -30.5t-7.5 -25.5t-11.5 -22t-15.5 -7q-4 0 -9 2q-3 -8 -9 -30.5t-13 -42.5t-16 -31q-1 -4 -5 -33.5t-4 -52.5q1 -6 4.5 -15.5t22 -35.5t45.5 -49t81 -48.5t124 -40.5
q32 -7 56 -110h-876v0z" />
    <glyph glyph-name="x" unicode="&#xe617;" 
d="M302.5 90.5q-7.5 7.5 -7.5 18.5t8 19l381 381q8 8 19 8t18.5 -7.5t7.5 -18.5t-8 -19l-381 -381q-8 -8 -19 -8t-18.5 7.5zM302.5 509.5q7.5 7.5 18.5 7.5t19 -8l381 -381q8 -8 8 -19t-7.5 -18.5t-18.5 -7.5t-19 8l-381 381q-8 8 -8 19t7.5 18.5z" />
    <glyph glyph-name="del" unicode="&#xe612;" 
d="M512 748q-91 0 -174 -35.5t-143 -95.5t-95.5 -143t-35.5 -174t35.5 -174t95.5 -143t143 -95.5t174 -35.5t174 35.5t143 95.5t95.5 143t35.5 174t-35.5 174t-95.5 143t-143 95.5t-174 35.5zM736 255h-448v90h448v-90z" />
    <glyph glyph-name="dingwei" unicode="&#xe61f;" 
d="M680 151q-8 2 -15 -2t-9 -12t2 -15t12 -9q45 -12 69 -28t24 -30q0 -11 -16.5 -24.5t-50.5 -25.5q-76 -27 -184 -27t-184 27q-34 12 -50.5 25.5t-16.5 24.5q0 14 24 30t69 28q8 2 12 9t2 15t-9 12t-15 2q-59 -16 -90 -41t-31 -55q0 -29 28 -52q23 -20 64 -34
q82 -30 197 -30t197 30q41 14 64 34q28 23 28 52q0 30 -31 55t-90 41v0zM433 107q32 -37 79 -37v0q47 0 79 38q58 62 113 141q117 166 117 271q0 63 -25 120q-23 56 -66 98.5t-98 65.5q-57 25 -120 25t-120 -25q-55 -23 -98 -65.5t-66 -98.5q-24 -57 -24 -120
q0 -105 116 -271q56 -79 113 -142v0zM392 529q0 51 36.5 87t87.5 36t87 -36t36 -87t-36 -87.5t-87 -36.5t-87.5 36.5t-36.5 87.5v0zM392 529z" />
    <glyph glyph-name="refresh" unicode="&#xe636;" 
d="M937 293q0 -3 -1 -4q-37 -154 -153.5 -249t-272.5 -95q-84 0 -162 31.5t-139 89.5l-74 -73q-10 -11 -25 -11t-26 10.5t-11 25.5v256q0 15 11 26t26 11h256q15 0 25.5 -11t10.5 -26t-11 -25l-78 -79q41 -37 92.5 -58t106.5 -21q77 0 143 37.5t106 102.5q6 10 30 67
q5 13 18 13h109q8 0 13.5 -5.5t5.5 -12.5zM951 750v-256q0 -15 -11 -26t-26 -11h-256q-15 0 -25.5 11t-10.5 26t11 25l78 79q-84 79 -199 79q-77 0 -143 -37.5t-106 -102.5q-6 -10 -30 -67q-5 -13 -18 -13h-113q-8 0 -13.5 5.5t-5.5 12.5v4q38 154 155 249t274 95
q83 0 162 -32t140 -89l75 73q10 11 25 11t26 -10.5t11 -25.5z" />
    <glyph glyph-name="huifu" unicode="&#xe629;" 
d="M1024 -96q-1 7 -4 19.5t-14 50t-25.5 74.5t-41 87t-58 93t-78 86.5t-100 74.5t-125 50.5t-151.5 19.5v213l-427 -384l427 -358v246q64 0 111 -2t100.5 -8.5t93 -18.5t82.5 -32t77.5 -48.5t68.5 -69.5t64 -93v0zM1024 -96z" />
    <glyph glyph-name="add" unicode="&#xe60f;" 
d="M863 249h-302v-302h-100v302h-302v101h302v302h100v-302h302v-101z" />
    <glyph glyph-name="tingzhi" unicode="&#xe627;" 
d="M512 834q-91 0 -174.5 -35.5t-144 -96t-96 -144t-35.5 -174.5t35.5 -174.5t96 -144t144 -96t174.5 -35.5t174.5 35.5t144 96t96 144t35.5 174.5t-35.5 174.5t-96 144t-144 96t-174.5 35.5zM168 384q0 94 46 173t125 125t173 46q107 0 196 -61l-479 -479q-61 89 -61 196z
M512 40q-104 0 -191 58l477 477q58 -87 58 -191q0 -94 -46 -173t-125 -125t-173 -46v0z" />
    <glyph glyph-name="iconfontqian" unicode="&#xe6c9;" 
d="M512 832q-187 0 -317.5 -130.5t-130.5 -317.5t130.5 -317.5t317.5 -130.5t317.5 130.5t130.5 317.5t-130.5 317.5t-317.5 130.5zM698 390v-25v-26h-148v-70h148v-26v-25h-148v-122h-19h-19h-19h-19v122h-141v25v13v13h141v70h-141v26v13v12h109l-141 250h19h26h19h19
l128 -230l122 230h19h19h19h19l-140 -250h128z" />
    <glyph glyph-name="fabu" unicode="&#xe626;" 
d="M828 89l-376 115l336 390l-434 -363l-351 105l1019 486zM440 -56v202l124 -35z" />
    <glyph glyph-name="photo" unicode="&#xe630;" 
d="M597.5 548q-68.5 0 -117 -49t-48.5 -118t48 -117t117 -48t116.5 48t47.5 117t-47.5 118t-116 49zM933 731h-135q-77 99 -78 99h-294q-1 0 -79 -99h-256q-37 0 -63 -26.5t-26 -62.5v-519q0 -37 26 -63t63 -26h842q37 0 63 26t26 63v519q0 36 -26 62.5t-63 26.5zM226 505
q-21 0 -36 15t-15 36t15 36t36 15t36 -15t15 -36t-15 -36t-36 -15zM600 159q-93 0 -160 65.5t-67 158t67 158.5t160 66q92 0 157 -65.5t65 -158.5t-65 -158.5t-157 -65.5z" />
    <glyph glyph-name="yanjing" unicode="&#xe616;" 
d="M1024 384q0 -30 -24 -69.5t-70.5 -81t-107 -76.5t-142.5 -57.5t-168 -22.5q-84 0 -165 22t-142 57t-108.5 76t-72 81t-24.5 71t25 71t72 81t108 76t142 57t165 22q87 0 169 -22t142.5 -57t107 -76t70 -81t23.5 -71v0zM512 635q-102 0 -174 -73.5t-72 -177.5t72 -177.5
t174.5 -73.5t174.5 73.5t72 177.5t-72 177.5t-175 73.5v0zM512 544q-65 0 -111 -46.5t-46 -113t46 -113t111 -46.5t111 46.5t46 113t-46 113t-111 46.5v0z" />
    <glyph glyph-name="loading" unicode="&#xe621;" 
d="M843 154q0 -6 6 -6t6 6v0q0 6 -6 6t-6 -6v0zM715 21v0q0 -5 3.5 -8t8 -3t8 3t3.5 8v0v0q0 5 -3.5 8.5t-8 3.5t-8 -3.5t-3.5 -8.5v0zM541 -47q0 -7 5.5 -12.5t12.5 -5.5t12 5.5t5 12.5t-5 12t-12 5t-12.5 -5t-5.5 -12zM355 -38v0q0 -10 6.5 -16.5t16.5 -6.5t16.5 6.5
t6.5 16.5v0v0q0 10 -6.5 16.5t-16.5 6.5t-16.5 -6.5t-6.5 -16.5v0zM189 47q0 -12 8.5 -20.5t20.5 -8.5t20.5 8.5t8.5 20.5v0q0 12 -8.5 20.5t-20.5 8.5t-20.5 -8.5t-8.5 -20.5v0zM75 191.5q0 -14.5 10 -25t24.5 -10.5t24.5 10.5t10 25t-10 24.5t-24.5 10t-24.5 -10
t-10 -24.5zM32 368.5q0 -16.5 11.5 -28.5t28.5 -12t29 12t12 28.5t-12 28.5t-29 12t-28.5 -12t-11.5 -28.5zM67 544.5q0 -19.5 13.5 -33t33 -13.5t33 13.5t13.5 33t-13.5 33t-33 13.5t-33 -13.5t-13.5 -33zM173 687q0 -22 15.5 -37.5t37 -15.5t37 15.5t15.5 37.5v0
q0 21 -15.5 36.5t-37 15.5t-37 -15.5t-15.5 -36.5v0zM329 768q0 -24 17 -41t41 -17t41 17t17 41t-17 41t-41 17t-41 -17t-17 -41zM504 773q0 -26 19 -45t45.5 -19t45 19t18.5 45v0q0 27 -18.5 45.5t-45 18.5t-45.5 -18.5t-19 -45.5v0zM665 701q0 -29 20 -49.5t49 -20.5
t49.5 20.5t20.5 49.5t-20.5 49.5t-49.5 20.5t-49 -20.5t-20 -49.5zM779 565.5q0 -31.5 22 -53.5t53 -22t53 22t22 53.5t-22 53.5t-53 22t-53 -22t-22 -53.5zM824 390q0 -34 23.5 -57.5t57.5 -23.5t57.5 23.5t23.5 57.5t-23.5 57.5t-57.5 23.5t-57.5 -23.5t-23.5 -57.5z" />
    <glyph glyph-name="shangdian" unicode="&#xe628;" horiz-adv-x="1033" 
d="M939 717h-854l-76 -235q0 -54 36.5 -91t91.5 -37q51 0 89.5 38.5t38.5 89.5q0 -54 36.5 -91t91.5 -37q51 0 89.5 38.5t38.5 89.5q0 -54 36.5 -91t91.5 -37q51 0 89.5 38.5t38.5 89.5q0 -54 36.5 -91t91.5 -37q51 0 89.5 38.5t38.5 89.5l-94 235v0zM171 755h682
q20 0 33.5 11.5t13.5 27.5t-13.5 27t-33.5 11h-682q-20 0 -33.5 -11t-13.5 -27t13.5 -27.5t33.5 -11.5v0zM764 350q-51 -51 -128 -51t-128 51q-51 -51 -128 -51t-128 51q-51 -51 -128 -51h-9v-286q0 -33 24.5 -55t52.5 -22h619q34 0 55 22t21 55v286h-8q-27 0 -59 13t-56 38
v0zM764 350z" />
    <glyph glyph-name="ok" unicode="&#xe622;" horiz-adv-x="1280" 
d="M415 127l-284 283l-96 -95l380 -380l815 815l-96 96z" />
    <glyph glyph-name="gantanhao" unicode="&#xe62a;" 
d="M506 767q-106 0 -195.5 -52t-141.5 -142t-52 -195.5t52 -195t141.5 -141.5t195.5 -52t195.5 52t141.5 141.5t52 195t-52 195.5t-141.5 142t-195.5 52zM506 118q-27 0 -46 19t-19 46t19 46t46 19t46 -19t19 -46t-19 -46t-46 -19zM571 378q0 -27 -19 -46t-46 -19t-46 19
t-19 46v194q0 27 19 46t46 19t46 -19t19 -46v-194z" />
    <glyph glyph-name="caiwu" unicode="&#xe600;" 
d="M159 771h266h26h125h141h150q18 0 31 12t13 29t-13 29t-31 12h-150h-141h-125h-26h-266q-18 0 -31 -12t-13 -29t13 -29t31 -12zM425 401v0v0v0zM937 689h-850q-18 0 -31 -13.5t-13 -32.5v-122v-438v-123q0 -18 13 -31.5t31 -13.5h850q18 0 31 13.5t13 31.5v123v438v122
q0 19 -13 32.5t-31 13.5zM658 260v0q18 0 31 -12t13 -29t-13 -29t-31 -12h-106v-99q0 -19 -12 -32.5t-28 -13.5t-28 13.5t-12 32.5v99h-106q-18 0 -31 12t-13 29t13 29t31 12h106v59h-106q-18 0 -31 12t-13 29t13 29t31 12h59l-22 43v-1l-25 51q-9 17 -4.5 34.5t19 25.5
t30.5 1.5t25 -23.5l21 -40q0 -2 1 -2l21 -42v0l22 -43l21 43v0l22 42q0 1 1 2l20 40q9 17 25.5 23.5t31 -1.5t18.5 -25.5t-4 -34.5l-26 -51v1l-22 -43v0v0v0v0h58q18 0 31 -12t13 -29t-13 -29t-31 -12h-106v-59h106v0z" />
    <glyph glyph-name="fuwu" unicode="&#xe601;" 
d="M912 406h-67v179q0 37 -26 63.5t-63 26.5h-179v67q0 46 -32.5 78.5t-79 32.5t-79 -32.5t-32.5 -78.5v-67h-179q-37 0 -63 -26.5t-26 -63.5v-170h66q50 0 85.5 -35t35.5 -85t-35.5 -85.5t-85.5 -35.5h-66l-1 -170q0 -37 26.5 -63t63.5 -26h170v67q0 50 35 85t85 35
t85.5 -35t35.5 -85v-67h170q37 0 63 26t26 63v179h67q46 0 79 32.5t33 79t-33 79t-79 32.5z" />
    <glyph glyph-name="jiantou" unicode="&#xe602;" 
d="M716 354l-302 -302q-12 -12 -30 -12t-30.5 12.5t-12.5 30t13 29.5l271 272l-271 272q-13 12 -13 29.5t12.5 30t30.5 12.5t30 -12l302 -302q12 -12 12 -30t-12 -30z" />
    <glyph glyph-name="kc" unicode="&#xe603;" 
d="M896 -85h-768q-42 0 -63.5 22.5t-21.5 62.5v683q0 40 21.5 62.5t63.5 22.5h85v85h86v-85h426v85h86v-85h85q42 0 63.5 -23t21.5 -62v-683q0 -40 -21.5 -62.5t-63.5 -22.5zM896 512h-768v-512h768v512zM469 299l-212 -1v129h212v-128zM469 85l-218 -2l5 130h213v-128z
M767 298l-212 1v128h212v-129v0zM773 83l-218 2v128h213l5 -130v0z" />
    <glyph glyph-name="qt" unicode="&#xe604;" 
d="M512 853q96 0 182.5 -37t149.5 -100t100 -149.5t37 -182t-37 -182.5t-100 -150t-150 -100t-182 -37t-182 37t-150 100t-100 150t-37 182.5t37 182t100 149.5t150 100t182 37v0zM739 744q-86 -90 -163 -171.5t-115.5 -122t-42.5 -44.5l140 -147l321 339zM903 769l-1 1
q-28 30 -69 30t-70 -30q-6 -7 -16 -17l140 -147l16 17q29 30 29 73t-29 73zM409 394q-78 -181 -56.5 -204t195.5 59z" />
    <glyph glyph-name="shezhi" unicode="&#xe605;" 
d="M512 228q-65 0 -110.5 45.5t-45.5 110.5t45.5 110.5t110.5 45.5t111 -45.5t46 -110.5t-46 -110.5t-111 -45.5zM977 464.5q-5 6.5 -13 7.5l-112 18q-9 29 -25 59q11 15 33 43q22 29 31 41q5 7 5 14q0 9 -4 14q-22 31 -101 103q-7 6 -15 6q-9 0 -15 -5l-87 -65
q-25 12 -55 22l-17 113q-1 8 -7 13t-15 5h-136q-17 0 -22 -17q-8 -31 -17 -114q-29 -9 -56 -23l-84 65q-8 6 -16 6q-14 0 -58 -43.5t-60 -65.5q-6 -8 -6 -14q0 -7 6 -15q41 -49 66 -84q-16 -28 -24 -56l-114 -17q-7 -1 -11.5 -8t-4.5 -14v-136q0 -8 4.5 -14t12.5 -8l112 -16
q9 -30 25 -60q-11 -16 -33 -44q-23 -29 -31 -40q-5 -7 -5 -14q0 -8 5 -14q24 -33 100 -103q7 -7 16 -7t15 6l86 65q25 -13 55 -22l17 -113q1 -8 7.5 -13t14.5 -5h136q18 0 22 17q8 31 18 114q29 9 55 23l85 -66q8 -6 16 -6q13 0 57 43.5t61 66.5q5 6 5 14t-6 15
q-44 54 -65 84q12 23 23 56l114 17q7 1 12 8t5 14v136q0 7 -5 13.5z" />
    <glyph glyph-name="sm" unicode="&#xe606;" 
d="M956 679h-725l-13 102q-1 12 -11.5 21t-22.5 9h-7q-5 0 -9 -1h-88q-16 0 -26.5 -10t-10.5 -23.5t10.5 -23.5t26.5 -10h74l71 -572q2 -12 12 -21t23 -9h7q4 0 8 1h587q15 0 26 10t11 23.5t-11 23.5t-26 10h-573l-8 70h582q13 0 24.5 8.5t13.5 20.5l80 342q2 12 -5 20.5
t-19 8.5h-1zM288 -4.5q0 -33.5 24.5 -57t58.5 -23.5t58.5 23.5t24.5 57t-24.5 57t-58.5 23.5t-58.5 -23.5t-24.5 -57zM699 -4.5q0 -33.5 24 -57t58.5 -23.5t59 23.5t24.5 57t-24.5 57t-59 23.5t-58.5 -23.5t-24 -57z" />
    <glyph glyph-name="sousuo" unicode="&#xe607;" 
d="M839.5 56.5q-13.5 -13.5 -33 -13.5t-32.5 14l-129 129q-80 -58 -176 -58q-123 0 -210.5 87.5t-87.5 211t87.5 211t211 87.5t211 -87.5t87.5 -210.5q0 -96 -58 -176l129 -129q14 -13 14 -32.5t-13.5 -33zM469.5 640q-88.5 0 -151 -62.5t-62.5 -151t62.5 -151t151 -62.5
t151 62.5t62.5 151t-62.5 151t-151 62.5z" />
    <glyph glyph-name="tj" unicode="&#xe608;" 
d="M512 853v-469h469q1 9 0.5 24t-7.5 59t-21.5 85t-49 93t-82.5 92t-128 72.5t-181 43.5zM468 823v-483h469q0 -5 -1 -14.5t-6.5 -38.5t-13.5 -57.5t-25 -66.5t-39.5 -71t-58 -66.5t-78 -57.5t-102.5 -38.5t-130 -14.5h-15.5t-39.5 3.5t-59.5 10t-69 21t-73.5 34.5
t-68.5 53.5t-59 74.5t-40 100t-15.5 128v0q2 3 -0.5 18t2 41.5t8.5 59t19.5 70t34 74.5t52 73t75 65.5t102 51t132.5 30.5z" />
    <glyph glyph-name="xiaoxi" unicode="&#xe60a;" 
d="M640 40q0 -52 -37.5 -88.5t-90.5 -36.5t-90.5 36.5t-37.5 88.5h256v0v0zM597 770q0 34 -25 58.5t-60 24.5t-60 -24.5t-25 -58.5q0 -7 1 -14q-91 -31 -153 -117t-62 -192v-115v-6t-0.5 -15l-1 -22t-2 -26t-3.5 -28t-5 -26t-7 -22.5t-10 -15.5t-12 -6q-19 0 -31.5 -12
t-12.5 -29.5t12.5 -29.5t30.5 -12h341h299h42q18 0 30.5 12t12.5 29.5t-12.5 29.5t-30.5 12q-19 0 -29.5 41.5t-11.5 82.5l-1 42v116q0 108 -60.5 193.5t-154.5 115.5q1 7 1 14v0z" />
    <glyph glyph-name="yg" unicode="&#xe60b;" 
d="M514 -85q-290 23 -359 29q-19 2 -41 10q-35 13 -28 48q36 164 37 171q17 65 84 83q29 8 83 21.5l78 19.5q29 8 39 42t-12 54q-67 65 -79 144q-2 8 -3 11q-14 18 -22 37t-8.5 41t0 36t8.5 40t11.5 35.5t14.5 38.5q6 17 25.5 33t39.5 22q86 25 151 22q29 -1 79 -25t69 -29
q36 -9 39 -71q3 -53 1 -98v-10v-10.5t-1.5 -9t-3.5 -9.5t-6.5 -7.5t-10.5 -7.5q-4 -2 -7 -26q-7 -83 -56 -138q-24 -27 -11 -65t47 -50q31 -10 91.5 -31.5t90.5 -30.5q52 -18 60 -73q3 -19 11 -72.5t12 -82.5q4 -30 -5 -42t-39 -15q-46 -5 -379 -35zM578 242q-3 -7 -11 -20
t-12.5 -22.5t-3.5 -17.5q1 -15 5 -31.5t11 -39t10 -32.5q7 4 7 5q17 41 29 72q6 16 9 22.5t3.5 15.5t-1 12t-8.5 10.5t-14 11.5t-24 14zM464 80q1 0 4 1t4 1q1 6 3.5 20t5.5 24.5t7 20.5q20 50 -30 97q-4 -5 -15.5 -15t-17.5 -17.5t-5 -12.5q4 -19 11 -37.5t18 -45t15 -36.5
z" />
    <glyph glyph-name="yh" unicode="&#xe60c;" 
d="M982 52h-126q-1 16 -1 23q-1 32 -1 40v6l-1 4q-7 20 -23.5 34.5t-29 19.5t-34.5 13q-15 5 -23 8q-13 5 -48 20q-45 19 -72 30q1 1 2 3t1 3l12 3q-2 7 -8 14t-8 10q-1 15 -4 45l-2.5 0.5t-5.5 1t-4 1.5q-11 7 -15 40q5 4 9 9q11 16 16 43q9 48 -5 76q-2 5 -5 10l-0.5 0.5
l-0.5 0.5v2q-1 4 0 12q13 23 35 30q73 29 118 2l11 -10l18 -3q4 -2 7.5 -7.5t5.5 -9.5l1 -5q6 -21 5 -54q0 -1 -2 -23t-1 -28q0 -4 6 -17q7 -13 2 -41q-3 -15 -8 -22q-2 -2 -8.5 -5.5t-8.5 -7.5q-4 -5 -4.5 -18t-2 -17.5t-8 -12.5t-7.5 -17q3 0 8 -1t8 -1q15 -33 24 -38
q5 -2 24 -7q16 -6 47 -19t40 -17q5 -2 19 -6.5t20.5 -7.5t14.5 -10t11 -16q0 -5 1 -37t1 -46zM574 398q-3 -4 -12 -8.5t-12 -9.5q-5 -8 -6 -26t-3 -24.5t-11.5 -17.5t-9.5 -24l21 -3q22 -45 34 -53q6 -2 17 -5t17 -4q22 -9 66.5 -27.5t55.5 -23.5q8 -3 27 -9.5t28.5 -10.5
t20.5 -13.5t16 -22.5q0 -8 1 -52.5t1 -63.5h-782q-1 19 0 63.5t1 52.5q5 13 16 22.5t20.5 13.5t29 10.5t26.5 9.5q11 5 55.5 23.5t67.5 27.5q5 1 16.5 4t16.5 5q12 8 34 53l16 4q-2 11 -10.5 20.5t-10.5 14.5q-2 21 -6 62l-4 0.5t-8 2t-5 1.5q-6 4 -10 11.5t-6.5 19
t-3.5 18.5t-2 21.5t-1 15.5q0 3 5.5 14t3.5 21q-16 76 2.5 127.5t59.5 64.5q19 8 33 12t38 8.5t48 0t46 -17.5l15 -14l25 -4q6 -3 11 -10.5t7 -13.5l3 -6q8 -31 6 -77q0 -1 -2.5 -32t-1.5 -39q0 -6 1 -9t4 -7t4 -7q10 -20 2 -58q-3 -21 -11 -31z" />
    <glyph glyph-name="touxiang" unicode="&#xe609;" 
d="M512 896q-139 0 -257 -68.5t-186.5 -186.5t-68.5 -257t68.5 -257t186.5 -186.5t257 -68.5t257 68.5t186.5 186.5t68.5 257t-68.5 257t-186.5 186.5t-257 68.5zM787 140q0 -4 -1.5 -6t-4 -3t-5.5 -1t-8 0.5t-8 0.5h-489q-3 0 -9 -0.5t-9.5 -0.5t-7.5 1t-6 3t-2 6v3
q0 3 1 9.5t5.5 23.5t11.5 32t21 31.5t33 26t56 23t64 22.5l27 9l1 50q-20 15 -26 62q-8 -3 -12 5.5t-5 19.5q0 2 -0.5 9t-1 12t0 11t3 9t6.5 2q-5 41 -4 54q3 34 28.5 59t74.5 25q46 -2 67 -26t25 -58q1 -12 -5 -54q5 1 7 -2t2.5 -9t0.5 -11t-1 -12t-1 -8q0 -12 -4.5 -20.5
t-12.5 -5.5q-2 -21 -8.5 -36.5t-11.5 -20.5l-5 -5l1 -49l143 -56q19 -9 33 -25.5t20.5 -33t10.5 -31.5t4 -25l1 -10v0z" />
    <glyph glyph-name="jiantou1" unicode="&#xe60e;" 
d="M308 414l302 302q12 12 30 12t30.5 -12.5t12.5 -30t-13 -29.5l-271 -272l271 -272q13 -12 13 -29.5t-12.5 -30t-30.5 -12.5t-30 12l-302 302q-12 12 -12 30t12 30z" />
    <glyph glyph-name="bianji" unicode="&#xe610;" horiz-adv-x="1195" 
d="M677 853l-424 -444l222 -232l425 444zM128 47l266 74l-190 199zM476 -85h126v132h-126v-132zM665 -85h127v132h-127v-132zM855 47v-132h126v132h-126z" />
    <glyph glyph-name="shanchu" unicode="&#xe611;" horiz-adv-x="1195" 
d="M128 597l128 -597q10 -46 28.5 -65.5t56.5 -19.5h427q39 0 57.5 19.5t27.5 65.5l128 597h-853zM725 768l-48 85h-245l-48 -85h-299v-85h939v85h-299z" />
    <glyph glyph-name="xinjian" unicode="&#xe613;" horiz-adv-x="1195" 
d="M1003 111v-196h-116v196h-191v117h191v196h116v-196h192v-117h-192zM811 307h-192v-275h192v-117h-730q-12 0 -25 13t-13 26v700q0 13 13 26t25 13h38l39 78q18 40 38 40h192q21 0 39 -40l38 -78h538q12 0 25 -13t13 -26v-151h-230v-196z" />
    <glyph glyph-name="arrow" unicode="&#xe614;" 
d="M744 486l-232 -204l-232 204h464z" />
    <glyph glyph-name="arrow1" unicode="&#xe615;" 
d="M280 282l232 204l232 -204h-464z" />
    <glyph glyph-name="touxiang1" unicode="&#xe620;" 
d="M91 -63.5q0 2.5 29 100.5q23 83 37 117.5t27 42.5q12 8 96 36q128 44 153 71q9 10 12 42q2 23 -0.5 30.5t-18.5 27.5q-22 26 -33 57t-16 31q-11 0 -20.5 42t0.5 47q4 3 -1 33t1 66.5t19 53.5q12 17 22 37q18 38 53.5 48.5t99.5 -2.5q61 -13 88 0q6 2 12 -6t10 -23t4 -31
q0 -27 8.5 -52t5.5 -72.5t2 -50.5q10 -7 1 -44.5t-23 -45.5q-10 -5 -10 -14q0 -11 -12 -34.5t-27 -41.5q-13 -16 -15 -23.5t0 -30.5q4 -39 34 -60t134 -56q7 -3 20 -7q31 -10 43 -14t28.5 -15t20.5 -16.5t13.5 -27.5t13 -38.5t12.5 -57.5q5 -18 7 -28q20 -88 20 -91t-425 -3
t-425 2.5z" />
    <glyph glyph-name="tuichu" unicode="&#xe618;" 
d="M1024 451l-196 -181v117h-321v127h321v117zM690 854h-590l315 -133v-631h275v254h46v-297h-321v-175l-415 175v849h736v-340h-46v298v0zM690 854z" />
    <glyph glyph-name="baocun" unicode="&#xe619;" 
d="M894 831h-128v-320q0 -27 -18.5 -46t-45.5 -19h-448q-27 0 -45.5 19t-18.5 46v320h-64q-27 0 -45.5 -19t-18.5 -45v-705l128 -128h64v320q0 30 17 47t47 17h448q30 0 47 -17t17 -47v-320h64q27 0 45.5 19t18.5 45v769q0 26 -18.5 45t-45.5 19zM894 703h-64v64h64v-64z
M318 254h128v-256h-128v256zM254 767h448v-64h-448v64zM254 639h448v-64h-448v64z" />
    <glyph glyph-name="01" unicode="&#xe61d;" 
d="M830 363q-74 0 -126.5 -52.5t-52.5 -126.5t52.5 -126.5t126.5 -52.5t126.5 52.5t52.5 126.5t-52.5 126.5t-126.5 52.5zM853 52q2 4 2 9v31q0 11 -7.5 18t-17.5 7t-17 -7t-7 -18v-31q0 -5 1 -9q-41 7 -71.5 37t-37.5 72q5 -2 9 -2h32q10 0 17 7.5t7 17.5t-7 17t-17 7h-32
q-4 0 -9 -1q7 42 37.5 72t71.5 37q-1 -4 -1 -9v-32q0 -10 7 -17t17 -7t17.5 7t7.5 17v32q0 5 -2 9q42 -7 72 -37t37 -72q-4 1 -9 1h-31q-10 0 -17.5 -7t-7.5 -17t7.5 -17.5t17.5 -7.5h31q5 0 9 2q-7 -42 -37 -72t-72 -37zM591 259l-95 40l1 80q14 15 23 37t11 37l2 14
q15 13 22 27.5t6.5 27t-3 22.5t-5.5 16l-4 6q11 58 2 96t-32 58.5t-46.5 30t-42.5 11.5l-18 2q-4 0 -10 -0.5t-24.5 -4.5t-32.5 -11.5t-33.5 -21t-27.5 -35t-14.5 -52.5t5.5 -73q-2 -2 -4 -6t-5.5 -15.5t-3.5 -23t7 -26.5t22 -28q5 -54 36 -88l2 -80q-110 -47 -147 -61
q-7 -1 -17.5 -3.5t-39 -15t-50 -31t-40 -54.5t-20.5 -81q0 -2 0.5 -5.5t2.5 -11.5t5.5 -14.5t10 -12t15.5 -5.5h588q-53 86 -53 187q0 34 7 68z" />
    <glyph glyph-name="kehufenpeixuanzhong" unicode="&#xe62b;" 
d="M937 199h-343q-1 0 -6 1q-8 2 -12 7q-7 6 -7 15.5t7 16.5l117 115q6 7 15.5 7t16 -6.5t6.5 -16t-6 -16.5l-78 -77h290q9 0 15.5 -6.5t6.5 -16t-6.5 -16.5t-15.5 -7zM570 320q1 0 4 -1t4 -2q-55 -59 -55 -140q0 -85 60.5 -146t146.5 -61h-665q7 123 82.5 219t190.5 131
q-62 32 -99.5 92.5t-37.5 132.5q0 105 74 179t179 74t179 -74t74 -179q0 -72 -37.5 -132.5t-99.5 -92.5zM730 -30v0v0v0zM881 85h-288q-10 0 -16.5 7t-6.5 16.5t6.5 16t16.5 6.5h340q2 0 6 -1q8 -2 13 -6q6 -7 6 -16.5t-6 -15.5l-117 -115q-6 -7 -15.5 -7t-16 7t-6.5 16
t6 16z" />
    <glyph glyph-name="home2" unicode="&#xe625;" 
d="M946 446l-352 367q-34 35 -82 35q-49 0 -82 -35l-352 -367q-17 -17 -24 -35t-6.5 -29t4.5 -20q20 -44 62 -44h45v-287q0 -49 30.5 -80t79.5 -31h155v309q0 24 9.5 34.5t34.5 10.5h88q25 0 34.5 -10t9.5 -35v-309h155q49 0 79.5 31t30.5 80v287h45q42 0 62 44q4 9 4.5 20
t-6.5 29t-24 35z" />
    <glyph glyph-name="shangyi" unicode="&#xe62c;" 
d="M962 320l-450 514l-450 -514h257v-386h386v386h257z" />
    <glyph glyph-name="jiugongge" unicode="&#xe6cb;" 
d="M63 579h255v255h-255v-255zM382 579h256v255h-256v-255zM702 834v-255h255v255h-255zM63 260h255v255h-255v-255zM382 260h256v255h-256v-255zM702 260h255v255h-255v-255zM63 -60h255v256h-255v-256zM382 -60h256v256h-256v-256zM702 -60h255v256h-255v-256z" />
    <glyph glyph-name="xiayi" unicode="&#xe62d;" 
d="M62 448l450 -514l450 514h-257v386h-386v-386h-257v0z" />
    <glyph glyph-name="zuojiantou" unicode="&#xe62e;" 
d="M576 834l-514 -450l514 -450v257h386v386h-386v257z" />
    <glyph glyph-name="youjiantou-copy" unicode="&#xe62f;" 
d="M448 -66l514 450l-514 450v-257h-386v-386h386v-257v0z" />
    <glyph glyph-name="quxiaoqiandao" unicode="&#xe635;" horiz-adv-x="1179" 
d="M933 616v1q-63 111 -176 179t-245 68q-98 0 -186.5 -38t-153 -102.5t-102.5 -153t-38 -186.5q0 -171 107 -302.5t271 -166.5q50 -11 102 -11h1q11 0 19 8t8 19t-8 19t-19 8h-1v0q-48 0 -93 10q-145 32 -239 149t-94 267q0 116 57 214t155 155t214 57t218 -61.5
t158 -162.5v0q9 -12 22 -12q12 0 20 8t8 19q0 8 -5 15v0zM716 62l309 425q13 18 35.5 21.5t40.5 -9.5l14 -11q23 -16 23 -44q0 -18 -10 -32l-309 -425l-103 75v0zM706 47l102 -74l-124 -63zM313 466h1q26 0 44.5 18.5t18.5 44.5t-18.5 44.5t-44.5 18.5h-1q-26 0 -44.5 -18.5
t-18.5 -44.5t18.5 -44.5t44.5 -18.5v0zM693 466h1q26 0 44.5 18.5t18.5 44.5t-18.5 44.5t-44.5 18.5h-1q-26 0 -44 -18.5t-18 -44.5t18 -44.5t44 -18.5v0zM691 137q-16 55 -62.5 90t-104.5 35q-57 0 -103.5 -35t-62.5 -90q-2 -5 -2 -10q0 -9 5 -17q10 -18 31 -18
q11 0 20.5 7t12.5 18q10 33 37.5 53.5t62 20.5t62 -20.5t37.5 -53.5q3 -11 12 -18t21 -7q5 0 10 1q11 3 18 12.5t7 21.5q0 5 -1 10v0z" />
    <glyph glyph-name="quxiaoyuyue" unicode="&#xe633;" 
d="M777 308q-72 0 -122.5 -51t-50.5 -123t50.5 -122.5t122.5 -50.5t122.5 50.5t50.5 122.5t-50.5 123t-122.5 51zM866 87q9 -9 9 -21t-8.5 -20.5t-21 -8.5t-20.5 8l-48 48l-48 -48q-8 -8 -20 -8t-21 8.5t-9 20.5t9 21l48 47l-48 48q-9 9 -9 21t9 20.5t21 8.5t20 -9l48 -47
l48 47q8 9 20.5 9t21 -8.5t8.5 -20.5t-9 -21l-48 -48zM532 134q0 96 67.5 163t162.5 67q44 0 84 -15v231q0 53 -37.5 90t-90.5 37h-98v90v0q0 15 -10.5 26t-25.5 11t-25.5 -11t-10.5 -26v0v-90h72v-92v-1q0 -15 -10.5 -25.5t-25.5 -10.5t-25.5 10.5t-10.5 25.5v1v92h-165v90
v1q0 15 -10.5 25.5t-25.5 10.5t-25.5 -10.5t-10.5 -25.5v-1v-90h71v-92v-1q0 -15 -10.5 -25.5t-25.5 -10.5t-25.5 10.5t-10.5 25.5v1v92h-110q-53 0 -90 -37.5t-37 -89.5v-518q0 -53 37 -90.5t90 -37.5h449q-53 30 -85 83.5t-32 116.5zM252 485h386q15 -1 26 -11.5t11 -25.5
t-11 -26t-26 -11h-386q-15 0 -25.5 11t-10.5 26t10.5 25.5t25.5 11.5v0zM482 98h-230q-15 0 -25.5 10.5t-10.5 25.5t10.5 26t25.5 11h230q15 0 26 -11t11 -26t-11 -25.5t-26 -10.5zM494 247h-242q-15 0 -25.5 11t-10.5 26t10.5 26t25.5 11h242q15 0 26 -11t11 -26t-11 -26
t-26 -11z" />
    <glyph glyph-name="qiandao" unicode="&#xe634;" horiz-adv-x="1179" 
d="M933 616v1q-63 111 -176 179t-245 68q-98 0 -186.5 -38t-153 -102.5t-102.5 -153t-38 -186.5q0 -171 107 -302.5t271 -166.5q50 -11 102 -11q11 0 19 8t8 19t-8 19t-19 8v0q-48 0 -93 11q-144 31 -238.5 148t-94.5 267q0 116 57 214t155 155t214 57t218 -61.5t158 -162.5
v0q8 -13 23 -13q11 0 19 8t8 19q0 9 -5 16v0zM716 62l309 425q13 18 35.5 21.5t40.5 -9.5l14 -11q23 -16 23 -44q0 -18 -11 -32l-308 -425l-103 75v0zM706 47l102 -74l-124 -63l22 137v0zM313 466q0 -1 1 -1q26 0 44.5 19t18.5 45t-18.5 44.5t-44.5 18.5h-1q-26 0 -44 -18.5
t-18 -44.5t18 -44.5t44 -18.5v0zM693 466q26 0 45 18.5t19 44.5t-19 44.5t-45 18.5v0q-26 0 -44.5 -18.5t-18.5 -44.5t18.5 -44.5t44.5 -18.5v0zM260 274q25 -83 94.5 -136t157.5 -53t157.5 52.5t93.5 134.5q3 7 3 12q0 15 -11 26t-26 11q-12 0 -21.5 -7.5t-13.5 -19.5
q-18 -60 -68 -98t-114 -38t-114 38t-68 97q-4 13 -13.5 20.5t-21.5 7.5q-15 0 -26 -11t-11 -26q0 -5 2 -10v0z" />
    <glyph glyph-name="pingzhang" unicode="&#xe637;" 
d="M111 831h-2q-19 -2 -31.5 -15.5t-12.5 -31.5v-352h423v399h-377zM389 614h-88v-92q0 -10 -7 -17t-17 -7t-17 7t-7 17v92h-88q-10 0 -17 7.5t-7 17t7 17t17 7.5h88v81q0 10 7 17t17 7t17 -7t7 -17v-81h88q9 0 16.5 -7.5t7.5 -17.5t-7.5 -17t-16.5 -7zM915 831h-379v-399
h423v351q0 19 -12.5 32.5t-31.5 15.5v0zM859 607h-223q-10 0 -17 7.5t-7 17t7 16.5t17 7h223q10 0 17 -7t7 -17t-7 -17t-17 -7zM65 383v-399q0 -20 13.5 -33.5t33.5 -13.5h375v446h-422zM375 69q-7 -7 -17 -7t-17 7l-66 65l-62 -62q-7 -7 -17 -7t-18 7q-7 7 -7 17t7 18
l63 62l-58 58q-7 7 -7 17t7 17t17 7t17 -7l58 -58l62 62q7 7 17 7t17 -7t7 -17t-7 -17l-62 -62l66 -66q7 -7 7 -17t-7 -17zM536 383v-446h376q19 0 32.5 13.5t13.5 33.5v399h-422zM859 77h-223q-10 0 -17 7t-7 17t7 17t17 7h223q10 0 17 -7t7 -17t-7 -17t-17 -7zM859 209
h-223q-10 0 -17 7t-7 17t7 17t17 7h223q10 0 17 -7t7 -17t-7 -17t-17 -7z" />
    <glyph glyph-name="gouwuche" unicode="&#xe6aa;" horiz-adv-x="1210" 
d="M1004 19h-516q-11 0 -20 7.5t-12 17.5l-184 730q-6 24 -27 40.5t-46 16.5v0h-167q-13 0 -22.5 9.5t-9.5 23t9.5 23t22.5 9.5h167h1q45 0 84.5 -31t50.5 -75l178 -706h491v0q13 0 22.5 -9.5t9.5 -23t-9.5 -23t-22.5 -9.5zM987 251h-546q-14 0 -23.5 9.5t-9.5 23t9.5 23
t23.5 9.5h525l162 364h-807q-13 0 -22.5 9.5t-9.5 23t9.5 23t22.5 9.5h857q14 0 23 -9.5t9 -23.5q0 -7 -2 -13l-191 -429q-4 -8 -12.5 -13.5t-17.5 -5.5v0zM603 -128q-34 0 -58 24t-24 58t24 58t58 24t58 -24t24 -58t-24 -58t-58 -24zM603.5 -29q-7.5 0 -12.5 -5t-5 -12
t5 -12t12.5 -5t12.5 5t5 12t-5 12t-12.5 5zM919.5 -128q-33.5 0 -58 24t-24.5 58t24.5 58t58 24t58 -24t24.5 -58t-24.5 -58t-58 -24zM920 -29q-8 0 -13 -5t-5 -12t5 -12t13 -5q6 0 11 5t5 12t-5 12t-11 5z" />
    <glyph glyph-name="huiyuanliebiao" unicode="&#xe6ab;" horiz-adv-x="1300" 
d="M886 77l-56 143q-1 5 -1 9v0q1 18 19 19q12 0 17 -12l41 -107l39 107q7 12 18 12q18 -1 20 -19q-1 -5 -2 -9l-56 -143q-7 -13 -19 -13q-14 0 -20 13zM993 82v146q0 20 19 20q18 0 19 -20v-146q-1 -18 -19 -18q-19 0 -19 18zM1120 246h-46q-20 -1 -20 -20v-144
q0 -18 20 -18q17 0 19 18v42h28q60 4 64 61q-4 57 -65 61zM1118 158h-25v54h25q25 -2 27 -27q-2 -26 -27 -27zM1217 826h-883q-14 0 -24.5 10.5t-10.5 25t10.5 24.5t24.5 10h883q14 0 24.5 -10t10.5 -24.5t-10.5 -25t-24.5 -10.5zM590 -81h-256q-14 0 -24.5 10t-10.5 24.5
t10.5 25t24.5 10.5h256q15 0 25 -10.5t10 -25t-10 -24.5t-25 -10zM163 -81h-128q-15 0 -25 10t-10 24.5t10 25t25 10.5h128q15 0 25 -10.5t10 -25t-10 -24.5t-25 -10zM590 210h-256q-14 0 -24.5 10.5t-10.5 24.5t10.5 24.5t24.5 10.5h256q15 0 25 -10.5t10 -24.5t-10 -24.5
t-25 -10.5zM163 210h-128q-15 0 -25 10.5t-10 24.5t10 24.5t25 10.5h128q15 0 25 -10.5t10 -24.5t-10 -24.5t-25 -10.5zM163 535h-128q-15 0 -25 10.5t-10 25t10 24.5t25 10h128q15 0 25 -10t10 -24.5t-10 -25t-25 -10.5zM163 826h-128q-15 0 -25 10.5t-10 25t10 24.5t25 10
h128q15 0 25 -10t10 -24.5t-10 -25t-25 -10.5zM881 535h-547q-14 0 -24.5 10.5t-10.5 25t10.5 24.5t24.5 10h547q15 0 25 -10t10 -24.5t-10 -25t-25 -10.5zM1000 -128q-124 0 -211.5 88t-87.5 212t87.5 211.5t211.5 87.5t212 -87.5t88 -211.5t-88 -212t-212 -88zM1000 401
q-95 0 -162 -67t-67 -162t67 -162.5t162 -67.5t162.5 67.5t67.5 162.5t-67.5 162t-162.5 67z" />
    <glyph glyph-name="chuzhiqiahetong" unicode="&#xe6ac;" 
d="M694 393h-403q-6 0 -9.5 -4t-3.5 -9.5t3.5 -9.5t9.5 -4h403q6 0 9.5 4t3.5 9.5t-3.5 9.5t-9.5 4zM694 503h-403q-6 0 -10 -4t-4 -9.5t4 -9.5t10 -4h403q6 0 9.5 4t3.5 9.5t-3.5 9.5t-9.5 4zM291 583h184q6 0 9.5 4t3.5 9.5t-3.5 9.5t-9.5 4h-184q-6 0 -9.5 -4t-3.5 -9.5
t3.5 -9.5t9.5 -4v0zM729 -128q-76 0 -129.5 53.5t-53.5 129t53.5 129.5t129.5 54t129.5 -54t53.5 -129.5t-53.5 -129t-129.5 -53.5zM729 190q-56 0 -95.5 -39.5t-39.5 -95.5t39.5 -95.5t95.5 -39.5t95.5 39.5t39.5 95.5t-39.5 95.5t-95.5 39.5zM523 -4l-23 -22l-106 102
q-10 10 -23 10v0q-13 0 -23 -10l-96 -97l-84 80v783h524v-109q0 -8 5.5 -14t14.5 -6h124v-455q53 -30 83 -83l-31 547v0q0 14 -10 23l-143 141q-10 10 -23 10v0h-567v0q-13 0 -23 -9.5t-10 -23.5v0v-807q0 -14 10 -24l101 -101q9 -9 22.5 -9t23.5 9l102 103l106 -103
q10 -9 23.5 -9t22.5 9l21 20q-26 41 -32 89zM639 283h-348v0q-6 0 -10 -4t-4 -9.5t4 -9.5t10 -4v0h300q42 31 94 39zM778 32h-37v21h37q5 0 8.5 3.5t3.5 8.5t-3.5 9t-8.5 4h-19l22 22q4 4 4 8q0 6 -4 9.5t-9 3.5t-8 -3l-34 -34l-36 36q-3 3 -8.5 3t-9 -3.5t-3.5 -8.5t4 -9
l24 -24h-21q-5 0 -8.5 -4t-3.5 -9t3.5 -8.5t8.5 -3.5h37v-21h-37q-5 0 -8.5 -3.5t-3.5 -8.5t3.5 -9t8.5 -4h37v-31q0 -5 3.5 -8.5t8.5 -3.5t8.5 3.5t3.5 8.5v31h37q5 0 8.5 4t3.5 9t-3.5 8.5t-8.5 3.5v0z" />
    <glyph glyph-name="huijihetong" unicode="&#xe6ad;" 
d="M664 0l-31 77v5v0q0 9 10 11q6 -1 9 -7l22 -58l21 58q4 7 10 7q10 -2 11 -11q-2 -9 -5 -18l-26 -64q-4 -7 -11 -7t-10 7v0zM721 2v80q0 10 11 11q9 -1 10 -11v-80q-1 -9 -10 -9q-11 0 -11 9zM790 91h-25q-10 0 -10 -11v-78q0 -9 10 -9q9 0 10 9v23h15q33 2 35 33
q-2 31 -35 33zM789 44h-14v29h14q13 -1 14 -15q-1 -14 -14 -14v0zM694 393h-403q-6 0 -9.5 -4t-3.5 -9.5t3.5 -9.5t9.5 -4h403q6 0 9.5 4t3.5 9.5t-3.5 9.5t-9.5 4zM694 503h-403q-6 0 -10 -4t-4 -9.5t4 -9.5t10 -4h403q6 0 9.5 4t3.5 9.5t-3.5 9.5t-9.5 4zM291 583h184
q6 0 9.5 4t3.5 9.5t-3.5 9.5t-9.5 4h-184q-6 0 -9.5 -4t-3.5 -9.5t3.5 -9.5t9.5 -4v0zM729 -128q-76 0 -129.5 53.5t-53.5 129t53.5 129.5t129.5 54t129.5 -54t53.5 -129.5t-53.5 -129t-129.5 -53.5zM729 190q-56 0 -95.5 -39.5t-39.5 -95.5t39.5 -95.5t95.5 -39.5
t95.5 39.5t39.5 95.5t-39.5 95.5t-95.5 39.5zM523 -4l-23 -22l-106 102q-10 10 -23 10v0q-13 0 -23 -10l-96 -97l-84 80v783h524v-109q0 -8 5.5 -14t14.5 -6h124v-455q53 -30 83 -83l-31 547v0q0 14 -10 23l-143 141q-10 10 -23 10v0h-567v0q-13 0 -23 -9.5t-10 -23.5v0
v-807q0 -14 10 -24l101 -101q9 -9 22.5 -9t23.5 9l102 103l106 -103q10 -9 23.5 -9t22.5 9l21 20q-26 41 -32 89zM639 283h-348v0q-6 0 -10 -4t-4 -9.5t4 -9.5t10 -4v0h300q42 31 94 39z" />
    <glyph glyph-name="chongzhitixing" unicode="&#xe6ae;" 
d="M512 -128q-237 0 -345.5 85.5t-108.5 264.5q0 145 98.5 279t237.5 183h236q139 -49 237.5 -183t98.5 -279q0 -179 -108.5 -264.5t-345.5 -85.5zM638 258q16 0 27 11.5t11 27.5t-11 27t-27 12v0h-78v1v1l91 94q18 19 -7 45q-12 12 -27.5 13.5t-25.5 -7.5l-78 -84l-85 85
q-8 8 -21.5 5.5t-25 -13.5t-14 -25t5.5 -22l87 -86q-2 -4 -3 -7h-71v0v0q-16 0 -27 -11.5t-11 -27.5t11 -27.5t27 -11.5v0v0h78v-38h-78v0v0v0q-16 0 -27 -11.5t-11 -27.5v0q0 -16 11 -27.5t27 -11.5h78v-39h1q-1 -4 -1 -9v0q0 -20 14 -34t34 -14t34 14t14 34q0 5 -1 9h1v39
h78q16 0 27 11.5t11 27.5t-11 27.5t-27 11.5v0h-78v38h78v0v0zM696 838l-9 -10v-1l-69 -86h-232l-68 86q-1 0 -1 0.5t-1 1.5l-7 9l1 3q-1 5 -1 7q0 20 18 27l1 2q96 19 174 19q37 0 80.5 -5t68.5 -9l26 -5v-2q19 -7 19 -27q0 -1 -2 -7z" />
    <glyph glyph-name="qiahaoshezhi" unicode="&#xe6af;" horiz-adv-x="1279" 
d="M1089 297h-101q-13 0 -21.5 -9.5t-8.5 -23t8.5 -23t21.5 -9.5h101q12 0 20.5 9.5t8.5 23t-8.5 23t-20.5 9.5zM1118 896h-957q-67 0 -114 -53t-47 -128v-662q0 -75 47 -128t114 -53h957q67 0 114 53t47 128v662q0 75 -47 128t-114 53zM1219 45q0 -45 -28.5 -77.5
t-68.5 -32.5h-969q-40 0 -69 32.5t-29 77.5v514h1164v-514zM1219 624h-1164v99q0 45 29 77.5t69 32.5h969q40 0 68.5 -32.5t28.5 -77.5v-99zM664 448h-477q-12 0 -21 -9.5t-9 -23t9 -23t21 -9.5h477q12 0 20.5 9.5t8.5 23t-8.5 23t-20.5 9.5zM1089 179h-101
q-13 0 -21.5 -9.5t-8.5 -23t8.5 -23t21.5 -9.5h101q12 0 20.5 9.5t8.5 23t-8.5 23t-20.5 9.5v0z" />
    <glyph glyph-name="huiyuanruchang" unicode="&#xe6b5;" 
d="M118 484q-12 0 -20.5 8t-8.5 20t8 20t19 9l460 29h2q12 0 20 -8t9 -19v-2q0 -11 -8 -19.5t-19 -9.5l-460 -28h-2v0zM361 59q-11 0 -19.5 8.5t-8.5 20.5q0 7 3 12l216 454q8 16 26 16q12 0 20.5 -8.5t8.5 -20.5q0 -7 -3 -12l-217 -454q-7 -16 -25 -16h-1zM266 286v0
q-12 0 -20.5 8.5t-8.5 19.5q0 15 12 24l312 226q8 6 17 6q12 0 20.5 -8.5t8.5 -20.5q0 -14 -12 -23l-313 -227q-7 -5 -16 -5v0zM838 -128h-192q-40 0 -68 28.5t-29 68.5v830q1 40 29 68.5t68 28.5h192q40 0 68.5 -28.5t28.5 -68.5v-830q0 -40 -28.5 -68.5t-68.5 -28.5z
M646 838q-16 0 -27.5 -11.5t-11.5 -27.5v-830q0 -16 11.5 -27.5t27.5 -11.5h192q16 0 27.5 11.5t11.5 27.5v830q0 16 -11.5 27.5t-27.5 11.5h-192zM817 613h-149q-11 0 -19.5 8.5t-8.5 20.5t8.5 20.5t19.5 8.5h149q12 0 20.5 -8.5t8.5 -20.5t-8.5 -20.5t-20.5 -8.5z" />
    <glyph glyph-name="shangsheng" unicode="&#xe6b0;" 
d="M570 896q-2 0 -6.5 -2t-6.5 -2l-319 -413l-5 -9q0 -8 5 -8q11 -12 17 -5l213 84q3 -86 -0.5 -148.5t-16 -124.5t-36.5 -110t-64 -97.5t-97 -94.5t-136 -94q49 10 89 20.5t85.5 27t82 36.5t74 49t67 64.5t57 83.5t47 104.5t33 128.5t19.5 155l213 -84q9 -4 18 5q7 7 0 22
l-320 412h-13z" />
    <glyph glyph-name="landuotixing" unicode="&#xe6b2;" 
d="M329 843l-1.5 1.5l-0.5 0.5q-51 51 -123 51t-123 -51q-49 -50 -50 -120t46 -121q42 78 106.5 139.5t145.5 99.5zM947 604q47 51 46 121.5t-50 119.5q-51 51 -123 51t-123 -51l-0.5 -0.5l-1.5 -1.5q81 -38 145.5 -99.5t106.5 -139.5zM750 -11q97 60 154 161t57 220
q0 91 -35.5 174.5t-95.5 143.5t-143.5 95.5t-174.5 35.5t-174.5 -35.5t-143.5 -95.5t-95.5 -143.5t-35.5 -174.5q0 -119 57 -220t154 -161l-73 -73q-7 -8 -7 -18.5t7.5 -18t18 -7.5t18.5 8l83 83q38 -17 93.5 -29.5t97.5 -12.5v0v0q42 0 97.5 12.5t93.5 29.5l83 -83
q8 -8 18.5 -8t18 7.5t7.5 18t-7 18.5zM512 318q-15 0 -24 12q-8 9 -8 20v0v0v1v321q0 13 9.5 22t22.5 9t22.5 -9t9.5 -22v-289h289q13 0 22.5 -9.5t9.5 -23t-9.5 -23t-22.5 -9.5h-321z" />
    <glyph glyph-name="qianzailiebiao" unicode="&#xe6b3;" horiz-adv-x="1300" 
d="M1217 826h-883q-14 0 -24.5 10.5t-10.5 25t10.5 24.5t24.5 10h883q14 0 24.5 -10t10.5 -24.5t-10.5 -25t-24.5 -10.5zM590 -81h-256q-14 0 -24.5 10t-10.5 24.5t10.5 25t24.5 10.5h256q15 0 25 -10.5t10 -25t-10 -24.5t-25 -10zM163 -81h-128q-15 0 -25 10t-10 24.5
t10 25t25 10.5h128q15 0 25 -10.5t10 -25t-10 -24.5t-25 -10zM590 210h-256q-14 0 -24.5 10.5t-10.5 24.5t10.5 24.5t24.5 10.5h256q15 0 25 -10.5t10 -24.5t-10 -24.5t-25 -10.5zM163 210h-128q-15 0 -25 10.5t-10 24.5t10 24.5t25 10.5h128q15 0 25 -10.5t10 -24.5
t-10 -24.5t-25 -10.5zM163 535h-128q-15 0 -25 10.5t-10 25t10 24.5t25 10h128q15 0 25 -10t10 -24.5t-10 -25t-25 -10.5zM163 826h-128q-15 0 -25 10.5t-10 25t10 24.5t25 10h128q15 0 25 -10t10 -24.5t-10 -25t-25 -10.5zM881 535h-547q-14 0 -24.5 10.5t-10.5 25
t10.5 24.5t24.5 10h547q15 0 25 -10t10 -24.5t-10 -25t-25 -10.5zM1000 -128q-124 0 -211.5 88t-87.5 212t87.5 211.5t211.5 87.5t212 -87.5t88 -211.5t-88 -212t-212 -88zM1000 401q-95 0 -162 -67t-67 -162t67 -162.5t162 -67.5t162.5 67.5t67.5 162.5t-67.5 162
t-162.5 67zM938 269v30h27v13h42v-13h21v-30h-21v-18h23v-28h-21q3 -16 21 -29v-22h5v21q20 14 25 30h-21v28h26v18h-25v30h25v13h41v-13h29v-30h-29v-18h34v-28h-27q9 -16 28 -28v-28q-39 14 -53 39q-14 -24 -36 -34h70v-86q1 -44 -43 -43h-129v121q-8 -4 -17 -8
q-4 -60 -19 -113h-48q23 62 27 119h38v15h-42q-5 27 -15 57h40q12 -22 18 -51q24 19 29 40h-30v28h34v18h-27zM912 306q11 -26 17 -59h-44q-5 34 -15 59h42zM986 198q-10 -17 -25 -26h60q-19 7 -35 26zM1077 139h-82v-17h82v17zM1062 73q16 -1 15 14v5h-82v-19h67z" />
    <glyph glyph-name="tongji" unicode="&#xe6b4;" 
d="M32 -128h960q13 0 22 9.5t9 22.5t-9 22.5t-22 9.5h-928v928q0 13 -9 22.5t-22.5 9.5t-23 -9.5t-9.5 -22.5v-960q0 -13 9.5 -22.5t22.5 -9.5zM187 122q29 0 49 23t20 55v0q0 15 -5 29l134 176q10 -4 21 -4v0q29 0 50 25l127 -72q0 -32 20 -54.5t48 -22.5t48 23t20 55v4
l177 173q13 -7 28 -7q28 0 48 23t20 55t-20 54.5t-48.5 22.5t-48.5 -22.5t-20 -54.5q0 -13 4 -26l-166 -162q-18 17 -42 17q-28 0 -48 -22l-129 74q-2 30 -22 51t-46 21q-29 0 -49 -22.5t-20 -54.5q0 -18 7 -33l-133 -174q-11 5 -24 5q-28 0 -48 -22.5t-20 -54.5t20 -55
t48 -23v0z" />
    <glyph glyph-name="xiajiang" unicode="&#xe6b1;" 
d="M457 -128q2 0 6.5 2t6.5 2l319 413l5 9q0 8 -5 8q-11 12 -17 5l-213 -84q-2 86 1 148.5t16 124.5t37 110t63.5 97.5t96.5 94.5t136 94q-49 -10 -89 -20.5t-85.5 -27t-81.5 -36.5t-74 -49t-67.5 -64.5t-57 -83.5t-46.5 -104.5t-33 -128.5t-20 -155l-213 84q-9 4 -18 -5
q-7 -7 0 -22l320 -412h13z" />
    <glyph glyph-name="sijiaohetong" unicode="&#xe6b6;" 
d="M694 393h-403q-6 0 -9.5 -4t-3.5 -9.5t3.5 -9.5t9.5 -4h403q6 0 9.5 4t3.5 9.5t-3.5 9.5t-9.5 4zM694 503h-403q-6 0 -10 -4t-4 -9.5t4 -9.5t10 -4h403q6 0 9.5 4t3.5 9.5t-3.5 9.5t-9.5 4zM291 583h184q6 0 9.5 4t3.5 9.5t-3.5 9.5t-9.5 4h-184q-6 0 -9.5 -4t-3.5 -9.5
t3.5 -9.5t9.5 -4v0zM729 -128q-76 0 -129.5 53.5t-53.5 129.5t53.5 129.5t129.5 53.5t129.5 -53.5t53.5 -129.5t-53.5 -129.5t-129.5 -53.5zM729 190q-56 0 -95.5 -39.5t-39.5 -95.5t39.5 -95.5t95.5 -39.5t95.5 39.5t39.5 95.5t-39.5 95.5t-95.5 39.5zM523 -4l-23 -22
l-106 102q-10 10 -23 10v0q-13 0 -23 -10l-96 -97l-84 80v783h524v-109q0 -8 5.5 -14t14.5 -6h124v-455q53 -30 83 -83l-31 547v0q0 14 -10 23l-143 141q-10 10 -23 10v0h-567v0q-13 0 -23 -9.5t-10 -23.5v0v-807q0 -14 10 -24l101 -100q9 -10 22.5 -10t23.5 10l102 102
l106 -103q10 -9 23.5 -9t22.5 9l21 20q-26 41 -32 89zM639 283h-348v0q-6 0 -10 -4t-4 -9.5t4 -9.5t10 -4v0h300q42 31 94 39zM724 41v-24q-12 9 -19 16v-58h-26v49q-9 -14 -25 -28v25q25 34 31 77l-30 -29v20h24v16h-22v19h41q15 0 29 4v-20q-12 -3 -22 -3v-16h23v-20h-22
q5 -13 18 -28zM796 57q11 -37 16 -78h-28v9q-17 -3 -38 -3h-22v19q18 54 24 122h30q-10 -74 -29 -122q14 0 33 3q-7 57 -25 110l39 -60v0z" />
    <glyph glyph-name="wangguan" unicode="&#xe6b7;" horiz-adv-x="1421" 
d="M1421 564v1q0 44 -31 75t-75 31v0q-44 0 -75.5 -31.5t-31.5 -75.5q0 -14 4 -28q-18 -5 -31 -14l-194 -115l-170 246q-13 23 -38 43q14 14 23.5 38t9.5 44v0q0 49 -34.5 83.5t-83 34.5t-83 -35t-34.5 -83t33 -82q-25 -21 -38 -43l-169 -246l-194 114q-1 0 -2 1t-2 1
q8 20 8 41q0 44 -31 75.5t-75.5 31.5t-75.5 -31.5t-31 -75.5q0 -35 21 -63t54 -38q-1 -15 -1 -23v-241q0 -16 11.5 -28t28.5 -12v0q16 0 28 11.5t12 28.5v0v242q0 14 1 19q6 -2 11 -5q1 -1 2 -1l227 -134q13 -8 28.5 -4.5t24.5 16.5l191 278q0 1 1 2l1 1q0 1 6 9t19.5 16.5
t27.5 9.5h2q15 -1 28.5 -9.5t19.5 -16.5l6 -9q1 -2 2 -3l191 -278q12 -17 33 -17q11 0 20 5l227 134l1 1q5 3 11 5q2 -5 2 -20v-330h-1123q-17 0 -28.5 -11.5t-11.5 -28.5v-158q0 -16 11.5 -28t28.5 -12h1162q17 0 28.5 11.5t11.5 28.5v0q0 17 -11.5 28.5t-28.5 11.5v0
h-1122v79h1122q17 0 28.5 11.5t11.5 28.5v369v18q43 0 74 31t31 75zM107 592q11 0 19 -8t8 -19.5t-8 -19.5t-19 -8t-19.5 8t-8.5 19.5t8.5 19.5t19.5 8zM695 816v0q16 0 27 -11t11 -27v0v0q0 -16 -11 -27.5t-27 -11.5v0v0q-16 0 -27.5 11.5t-11.5 27.5v0q0 16 11.5 27
t27.5 11zM1315 536q-12 0 -20 8.5t-8 19.5t8 19t19.5 8t19.5 -8t8 -19t-8 -19.5t-19 -8.5v0z" />
    <glyph glyph-name="xuhuitixing" unicode="&#xe6b8;" horiz-adv-x="1130" 
d="M1059 842q0 22 -15.5 38t-37.5 16h-953q-22 0 -37.5 -16t-15.5 -38v-122h1059v122zM900 402q86 0 159 -46v223h-1059v-441q0 -22 15.5 -38t37.5 -16h548q-1 16 -1 18q0 124 88 212t212 88zM351 177h-227v57h227v-57zM900.5 332q-95.5 0 -162.5 -67.5t-67 -162.5
t67 -162.5t162.5 -67.5t162.5 67.5t67 162.5t-67 162.5t-162.5 67.5zM997 49h-88q-11 0 -18.5 8t-7.5 19v123q0 11 8 18.5t18.5 7.5t18 -7.5t8.5 -18.5v-97h61q11 0 18.5 -8t7.5 -18.5t-7.5 -18.5t-18.5 -8v0z" />
    <glyph glyph-name="xuketixing" unicode="&#xe6b9;" horiz-adv-x="1237" 
d="M985.5 896q63.5 0 109 -47.5t45.5 -114t-45.5 -114t-109 -47.5t-109 47.5t-45.5 114t45.5 114t109 47.5zM0 437l217 7l32 -35l287 -233q6 -5 2.5 -20.5t-10.5 -20.5l-42 -28l-60 -40q-12 -7 -32.5 -3t-30.5 13q-293 244 -350 292q-6 5 -8.5 16.5t-3.5 30.5t-1 21z
M326 791q-18 0 -21.5 -9.5t3 -20.5t16.5 -20l276 -231q-8 -6 -61.5 -45t-81.5 -60q-17 -15 -9.5 -43t24.5 -41q74 -61 548 -449h218q-2 7 -4 26.5t-6.5 32t-14.5 20.5q-104 84 -311 251q-103 85 -155 126q76 61 153 123q12 10 9 30.5t-15 30.5q-89 75 -333 282
q-22 0 -235 -3v0z" />
    <glyph glyph-name="shengrizhufu" unicode="&#xe6ba;" horiz-adv-x="1072" 
d="M1003 18h-933q-30 0 -50 -21t-20 -52t20 -52t50 -21h933q30 0 50 21t20 52t-20 52t-50 21zM1000 287q0 3 -1 10t-6 23.5t-14.5 29.5t-29.5 23.5t-47 10.5h-731q-28 0 -48 -10t-29 -24.5t-14.5 -28.5t-5.5 -24l-1 -10v-220h927v220zM171 628h195v-195h-195v195zM439 628
h195v-195h-195v195zM707 628h195v-195h-195v195zM232 677q-13 6 -13 24q0 21 14 43t35 22t35 -23t14 -42q0 -8 -3 -14t-6 -8l-3 -2h6t14.5 4t18.5 11t15 22t7 36q0 32 -21 68t-43.5 57t-33.5 21t-34 -21.5t-43 -57.5t-20 -67q0 -21 6.5 -36t14.5 -22t18.5 -11t14.5 -4h7z
M500 677q-12 6 -12 24q0 21 14 43t34.5 22t34.5 -23t14 -42q0 -8 -3 -14t-6 -8l-3 -2h6.5t15 4t18.5 11t14.5 22t6.5 36q0 32 -21 68t-43.5 57t-33.5 21t-33.5 -21.5t-43 -57.5t-20.5 -67q0 -21 6 -36t15 -22t18 -11t16 -4h6zM768 677q-12 6 -12 24q0 21 14 43t34.5 22
t34.5 -23t14 -42q0 -8 -3 -14t-6 -8l-3 -2h7t14.5 4t18.5 11t14.5 22t6.5 36q0 32 -20.5 68t-43.5 57t-33 21q-11 0 -34 -21.5t-43.5 -57.5t-20.5 -67q0 -21 6.5 -36t15 -22t17.5 -11t16 -4h6z" />
    <glyph glyph-name="yuechipaiguanli" unicode="&#xe6bb;" horiz-adv-x="1026" 
d="M270 -128h-242v0q-12 0 -20 8t-8 20v168v0q0 11 8 20l379 393q8 9 20 9q11 0 19.5 -8t8.5 -20q0 -11 -8 -19l-371 -386v-129h186v107q0 12 8 20t20 8h106l185 204q8 8 20 8t20 -8t8 -19t-7 -19l-193 -213q-8 -9 -20 -9v0h-91v-107v0q0 -12 -8.5 -20t-19.5 -8zM706 255
q-11 0 -19.5 8.5t-8.5 20t8.5 19.5t19.5 8q110 0 187.5 77.5t77.5 187t-77.5 187t-187 77.5t-187 -77.5t-77.5 -186.5q0 -12 -8.5 -20t-20 -8t-19.5 8t-8 20q0 86 43 160t116.5 117t160.5 43t161 -43t117 -117t43 -160.5t-43 -160.5t-117 -117t-161 -43zM706 445
q-11 0 -19.5 8t-8.5 19.5t8.5 20t19.5 8.5q31 0 53 22t22 53t-22 52.5t-53 21.5t-52.5 -21.5t-22.5 -52.5q0 -12 -8 -20t-19.5 -8t-19.5 8t-8 20q0 54 38 92t92 38t92.5 -38t38.5 -92t-38.5 -92.5t-92.5 -38.5z" />
    <glyph glyph-name="yuyuedengji" unicode="&#xe6bd;" 
d="M633 531q3 -1 5 -2v0q25 -9 52 7t43 49q17 35 11.5 67.5t-30.5 44.5t-53.5 -3.5t-46.5 -50.5q-15 -31 -12 -61q3 -37 31 -51zM660 621q5 11 12.5 18.5t12.5 10t7 1.5t3 -6.5t-0.5 -16t-7 -21t-12.5 -18.5t-12 -10.5t-8 -1.5q-1 1 -2 6.5t0.5 16t6.5 21.5zM735 457
q5 -3 10 -5v0q21 -7 43.5 3t37.5 33q17 26 14 53.5t-24 41.5q-21 13 -47.5 4t-43.5 -35t-14 -53.5t24 -41.5zM768 525q4 5 8.5 9t7.5 5t4 1q6 -7 -5 -24q-10 -16 -20 -16q-5 9 5 25zM895 437q-11 20 -38.5 24.5t-52.5 -9.5q-26 -15 -36.5 -40t1.5 -46q10 -16 28 -23
q31 -11 64 8q24 13 34 35q14 27 0 51zM836 395q-13 -7 -22 -4q2 9 15 16q11 7 22 5q0 -8 -15 -17zM640 504l-174 106l-3 2q-70 30 -135 -7q-55 -32 -65 -93q-1 -21 -2 -32t4 -33.5t8 -33.5t9 -34q8 -24 11.5 -37.5t7 -33.5t2.5 -35.5t-7 -27.5q-11 -24 -26.5 -38t-42.5 -31
q-20 -12 -31.5 -20.5t-28.5 -26.5t-28 -40q-30 -58 -8 -115q25 -64 108 -94l1 -1v0q56 -20 113.5 10t88.5 74l0.5 1l0.5 1q3 4 4 5h-1q1 0 1.5 1l0.5 1q1 4 1 9q0 7 -5 14.5t-12 9.5q-18 7 -30 -9v0q-40 -44 -74 -63t-71 -5q-61 22 -78 64q-14 36 5 73q8 17 20.5 30t22 20
t27.5 18q21 13 32.5 21.5t28.5 27t27 41.5q12 25 11.5 57t-5.5 53.5t-17 60.5q-23 79 -18 109q6 37 41 58q39 22 84 6q2 0 4 -1l170 -105q92 -62 43 -163q-18 -39 -43.5 -73.5t-43.5 -53.5t-47 -46v0q-4 -4 -6 -10q-2 -4 -2 -9q0 -7 5 -14.5t13 -9.5q14 -5 26 6v0
q99 92 144 188q68 141 -61 228zM346 630q10 -4 21 -5q41 -2 72.5 35t34.5 94q4 49 -15.5 87t-53.5 51q-10 3 -21 4q-44 3 -76 -39q-28 -37 -32 -90q-3 -49 16.5 -87t53.5 -50zM327 764q3 37 22 62q15 20 32 19q3 0 7 -2q16 -5 27 -29t9 -57q-3 -35 -19.5 -58.5t-34.5 -22.5
q-4 1 -7 2q-16 5 -27 29.5t-9 56.5zM517.5 600q27.5 -10 56 10t42 58.5t4 72t-37 43t-56 -10t-42.5 -58t-4 -72t37.5 -43.5zM566 736q2 -1 4.5 -7t2 -18t-5 -25.5t-12 -22.5t-13 -12.5t-8 -2.5t-5 7t-2 18t5 25t12 22.5t13 12.5t8.5 3v0z" />
    <glyph glyph-name="zulinguiguanli" unicode="&#xe6be;" 
d="M934 896h-844q-22 0 -38.5 -16.5t-16.5 -39.5v-874q0 -23 16.5 -39.5t38.5 -16.5h77v-38h78v38h534v-38h78v38h77q22 0 38 16.5t16 39.5v874q0 23 -16 39.5t-38 16.5zM938 -38h-852v257h852v-257zM938 274h-852v259h852v-259zM938 588h-852v255h852v-255zM775 711h79
q8 0 14 6t6 15v25v0q0 8 -6 14t-14 6v0h-79v0q-9 0 -15 -6t-6 -14v0v-25q0 -9 6 -15t15 -6zM775 396h79q8 0 14 6t6 15v25v0q0 8 -6 14t-14 6v0h-79v0q-9 0 -15 -6t-6 -14v0v-25q0 -9 6 -15t15 -6zM775 88h79q8 0 14 6t6 14v25v0q0 9 -6 15t-14 6v0h-79v0q-9 0 -15 -6
t-6 -15v0v-25q0 -8 6 -14t15 -6v0z" />
    <glyph glyph-name="zhinengyunying" unicode="&#xe6bf;" 
d="M512 692q-117 0 -200.5 -83t-83.5 -200.5t83.5 -201t200.5 -83.5t200.5 83.5t83.5 201t-83.5 200.5t-200.5 83zM512 195q-88 0 -150.5 62.5t-62.5 150.5t62.5 150.5t150.5 62.5t150.5 -62.5t62.5 -150.5t-62.5 -150.5t-150.5 -62.5zM512 743q15 0 25 10.5t10 24.5v83
q0 14 -10 24.5t-25 10.5t-25 -10.5t-10 -24.5v-83q0 -14 10 -24.5t25 -10.5zM272.5 643.5q10.5 10.5 10.5 25t-10 25.5l-59 58q-10 10 -24.5 10t-25 -10t-10.5 -25t10 -25l59 -58q10 -11 25 -11v0v0q14 0 24.5 10.5zM859.5 752q-10.5 10 -25 10t-24.5 -10l-59 -58
q-10 -11 -10 -25.5t10.5 -25t24.5 -10.5v0v0q15 0 25 11l59 58q10 10 10 25t-10.5 25zM139 444h-83q-14 0 -24.5 -10.5t-10.5 -25t10.5 -25t24.5 -10.5h83q14 0 24.5 10.5t10.5 25t-10.5 25t-24.5 10.5zM968 444h-83q-14 0 -24.5 -10.5t-10.5 -25t10.5 -25t24.5 -10.5h83
q14 0 24.5 10.5t10.5 25t-10.5 25t-24.5 10.5zM629 74h-234q-14 0 -24.5 -10.5t-10.5 -25t10.5 -25t24.5 -10.5h234q14 0 24.5 10.5t10.5 25t-10.5 25t-24.5 10.5zM592 -57h-160q-15 0 -25.5 -10.5t-10.5 -25t10.5 -25t25.5 -10.5h160q15 0 25.5 10.5t10.5 25t-10.5 25
t-25.5 10.5v0z" />
    <glyph glyph-name="yibiaopan" unicode="&#xe6c0;" 
d="M832 666v0v0q-14 1 -182 -188.5t-202 -236.5q-22 -40 -14 -70t40 -52q24 -16 49 -17q44 -2 73 42q31 48 139 280.5t97 241.5zM563 512l7 -1l12 15q32 35 63 69l12 14l-18 5q-60 18 -127 18v0q-93 0 -178.5 -36.5t-147 -98t-98 -146.5t-36.5 -178q0 -24 17 -41t41 -17
t41 17t17 41q0 93 46.5 172t125.5 125t172 46q26 0 51 -4zM862 471l-12 14l-8 -17q-18 -41 -38 -82l-8 -20l3 -5q57 -84 57 -188v0q0 -24 17 -41t41 -17t41 17t17 41q0 82 -28.5 159t-81.5 139z" />
    <glyph glyph-name="zanwushuju1" unicode="&#xe6bc;" 
d="M130 326h-1q-6 0 -10 4.5t-4 10.5v0q2 42 -31 61q-20 10 -43 10q-2 1 -5 5.5t-3 9.5q0 6 4.5 10t10.5 4q45 -2 73 -32q25 -27 23 -69q0 -6 -4 -10t-10 -4zM310 328h-5q-6 0 -10 4.5t-4 9.5q0 6 4.5 10.5t10.5 4.5q30 -1 48 15q20 19 23 54q0 5 4 9.5t10 4.5t10.5 -4.5
t4.5 -10.5v0q-2 -46 -33 -74q-25 -23 -63 -23zM265 234v0q-7 0 -11 6q-30 38 -40 79t-6 70.5t16 58t19 38t11 14.5t10 5t10.5 -4.5t4.5 -10.5q0 -5 -3 -9q-5 -5 -11 -13.5t-16 -33t-13 -49.5t6 -60t34 -67q3 -4 3 -9q0 -6 -4 -10.5t-10 -4.5zM897 326q-5 0 -9.5 4t-4.5 10
q-2 42 23 69q28 30 74 32q6 0 10 -4t4 -10t-4 -10t-9 -5q-20 -1 -37 -10q-34 -19 -32 -61v0q0 -6 -4 -10.5t-10 -4.5h-1zM718 328q-39 0 -64 23q-31 28 -32 74q0 6 4 10t10 4t10 -4t5 -9q1 -20 10 -37q18 -34 61 -32q6 0 10 -4.5t4 -10.5q0 -5 -4 -9.5t-9 -4.5h-5zM762 234
q-6 0 -10 4.5t-4 10.5q0 5 3 9q25 32 34 67t6 60t-13 49.5t-16 33t-11 13.5q-3 4 -3 9q0 6 4.5 10.5t10.5 4.5t10 -5q5 -5 11.5 -14.5t19 -38t16.5 -58t-6.5 -70.5t-39.5 -79q-4 -6 -12 -6v0zM579 255h-125q-6 0 -10 4t-4 10t4 10.5t10 4.5h125q6 0 10.5 -4.5t4.5 -10.5
t-4.5 -10t-10.5 -4z" />
    <glyph glyph-name="sijiao" unicode="&#xe6c5;" 
d="M329.5 788q-82.5 -37 -142.5 -103t-90 -144.5t-28 -167.5t39 -171.5t103 -142.5t144.5 -90t167.5 -28t171.5 39t142.5 103t90 144.5t28 167.5t-39 171.5t-103 142.5t-144.5 90t-167.5 28t-171.5 -39zM474 77q-9 29 -26 66l-36 81q-7 15 -26 67q5 -88 -19 -162
q-27 27 -51 40q14 43 20 81q7 50 7 96v3v5l-33 -16q-27 -12 -44 -22l-24 55q18 4 48 18l40 18l-24 52q-28 -20 -63 -43q-13 20 -41 40q87 52 145 107q15 15 22 27l54 -32q-2 -2 -7 -6q-1 0 -4 -3.5t-9 -9t-11 -11.5q-25 -22 -38 -32l29 -65l33 15q30 13 43 23l25 -55
q-18 -5 -46 -18l-32 -14l6 -14q55 -11 108 -35l-9 -57q-44 25 -74 37l66 -146q20 -44 32 -62l-61 -28v0zM803 238q-20 27 -30 39q-53 -41 -164 -109q-16 -10 -33 -22l-39 49q9 8 11.5 18.5t1.5 37.5q-12 101 -35.5 218.5t-40.5 154.5l70 18q1 -9 20 -99q36 -177 47 -303l4 2
q52 29 121 77q-70 74 -128 118l40 40q102 -74 203 -195l-48 -44v0z" />
    <glyph glyph-name="qianzaikehu" unicode="&#xe6c8;" 
d="M581 125l-1 1q-53 30 -69 87q-6 19 -6 41q0 66 50 110q-4 8 -5 16t-1 14v6l-2 12q32 43 36 100q4 5 12 13.5t10 11t6 8t4.5 10t0.5 11.5q-1 1 -1 3t-1.5 7.5l-3 11t-3.5 12.5t-4.5 13t-6 12t-6.5 10t-7.5 5.5t-8.5 0.5q-2 -1 -3.5 -2t-5.5 2t-4 11q-1 14 -10.5 46.5
t-16.5 50.5q-1 2 -4.5 12t-6 17t-8.5 17t-12 15.5t-15.5 9.5t-20.5 3q-18 -2 -31 -6.5t-18 -4.5q-5 -1 -38.5 10t-49.5 7l-70 -33q-16 -5 -22.5 -14t-11.5 -11q-2 -1 -8.5 -1.5t-30.5 -12.5q-27 -13 -34.5 -44.5t-2.5 -56.5q7 -43 29 -108q4 -9 3 -13.5t-4 -6.5l-4 -2
q-7 -1 -9 -10t0.5 -21t6 -23.5t7 -19.5l3.5 -8q1 -2 4.5 -10t5 -9.5t7 -5.5t13.5 -6t20 -3q15 -20 37 -35t37 -20l15 -5v0l6 -18l3 -5t5 -15.5t-1.5 -23t-21.5 -28.5t-51 -30q-39 -18 -66 -44t-36.5 -45.5t-18 -43t-11.5 -28.5q-17 -28 13 -131l514 147l-75 40v0zM896 324
q-11 37 -45 56t-71 8q-36 -10 -56 -45l-8 -16l-16 10q-21 11 -45 11q-13 0 -26 -4q-37 -10 -55.5 -44t-7.5 -72q10 -36 44 -55l145 -79q13 -9 30 -4t24 20l81 144q18 36 6 70z" />
    <glyph glyph-name="gaoxiaofei" unicode="&#xe6c3;" 
d="M204 651v0q0 -67 47 -113.5t113.5 -46.5t113.5 46.5t47 113.5v0q0 66 -47 113t-113.5 47t-113.5 -47t-47 -113zM504 365q21 34 34 68t16.5 58.5t3.5 44.5t-2 30l-3 10q-1 -3 -3 -8.5t-11 -21t-19.5 -30t-29 -32.5t-39.5 -31q-42 -26 -98.5 -26.5t-129.5 29.5
q-35 15 -64.5 15t-54.5 -12t-41 -26t-24 -28q-42 -73 9 -147q30 -43 88.5 -58t123.5 -3t132 56.5t112 111.5zM723 781q-23 -11 -39.5 -32t-26 -48t-14.5 -46t-9 -45t-4 -27q-13 -116 -49.5 -195t-107.5 -144q-136 -118 -312 -107q-35 2 -57 8q51 -80 140.5 -128t175.5 -59
q101 -9 211 43t207 170q88 128 110.5 279.5t-33.5 267.5q-18 36 -52.5 57t-75.5 21q-34 0 -65 -15h1z" />
    <glyph glyph-name="tuankeaihaozhe" unicode="&#xe6c4;" 
d="M754 395q23 -4 30 -29l42 -156q4 -15 -2.5 -28.5t-20.5 -17.5l-502 -136q-14 -3 -26 5q-15 11 -17 28l-6 20l-35 132q-7 25 11 40l172 144q-46 13 -78 52q-39 44 -47 103v-1v15l-1 1v10v1q0 56 28.5 99.5t77.5 57.5q50 13 97.5 -11.5t74.5 -74.5q12 -24 18 -44
q7 -25 7 -53q0 -16 -2 -32q-8 -50 -41 -84l66 -12zM196 291q-24 -20 -29 -50l-2 -16q0 -13 4 -26l35 -131l-105 -28q-12 -3 -21.5 3.5t-12.5 19.5l-34 125q-6 23 9 33l139 117q-34 10 -60 37.5t-37 67.5q-7 27 -4.5 54.5t13.5 50.5q16 35 49 54l23 8q6 2 12 3h19
q16 -1 32 -6q-6 -47 6 -93q10 -36 29 -66.5t45 -52.5q-13 -26 -37 -41zM935 463q19 -4 24 -24l34 -125q4 -14 -1 -24q-5 -12 -18 -14l-107 -29l-35 132q-9 31 -34 50q-11 13 -42 16l-107 20q-16 4 -34 16q11 31 12 66v6q0 34 -9 66q-13 45 -40 83v0q-14 20 -43 42
q12 -5 22 -8.5t19 -5t15 -2t13.5 1t10 2.5t10 3.5t9.5 3.5h-1l-7 -3h2q12 3 19 4h1q6 1 13 1q11 0 22 -2q32 -7 56 -29q1 0 5 -3.5t9.5 -10t10.5 -13.5q23 -33 28 -74q1 -1 1.5 -8.5t-0.5 -20t-4 -23.5q-9 -37 -30 -62z" />
    <glyph glyph-name="xinhuiyuan" unicode="&#xe6c1;" 
d="M189.5 680q-80.5 -88 -105.5 -202t9.5 -225t122.5 -191.5t202 -105.5t225 9.5t191.5 122.5t105.5 202t-9.5 225t-122.5 191.5t-202 105.5t-225 -9.5t-191.5 -122.5zM496 231l-40 -43l-122 19l34 -27l44 -41l-40 -44l-140 129l39 43l123 -20l-34 27l-45 41l41 44zM629 376
l-108 -117l-140 128l105 114l33 -30l-63 -68l20 -18l53 57l33 -30l-53 -57l22 -20l65 71zM782 543l-41 -45l-96 58h-1l67 -91l-42 -45l-171 94l40 44l101 -64l1 1l-72 96l35 38l102 -63v1l-72 95l41 44z" />
    <glyph glyph-name="xunliandaren" unicode="&#xe6c2;" 
d="M612 177q-14 -7 -29 -7q-20 0 -36.5 10.5t-24.5 27.5l-57 -27q16 -34 48 -54t70 -20q30 0 57 13q33 17 53 48.5t20 69.5q0 30 -13 58l-56 -28q7 -14 7 -30q0 -20 -10.5 -36.5t-27.5 -24.5h-1zM854 679q-1 0 -1.5 1t-0.5 2l-2 2q-2 3 -8 8q-100 107 -244.5 135t-282.5 -36
q-134 -65 -202 -195.5t-48 -274.5v-1v-3q1 -8 2 -12v-2q1 -1 1 -2v-2q18 -90 68 -166q29 -63 91 -111t140 -71.5t169 -18t173 44.5q82 40 141.5 109t88 149.5t24 171.5t-44.5 174q-51 105 -144 171zM343 734q94 44 191.5 38t181.5 -57q-44 -13 -72 -27l-36 -17
q-119 -57 -138 -115l-67 -32q-57 20 -175 -37l-36 -17q-29 -14 -66 -40q12 97 69 178.5t148 125.5zM681 34q-129 -61 -264 -27t-217 146q42 -24 74 -22q31 2 66 19q51 25 89 70t46 92q5 37 -4 81.5t-26 81.5l38 18q18 -36 47 -71t62 -53q41 -23 100 -21.5t111 26.5
q34 16 55 39q22 24 29 72q19 -66 12 -133.5t-33 -127.5t-74 -110t-111 -80v0z" />
    <glyph glyph-name="zhengshihuiyuan" unicode="&#xe6c7;" 
d="M317.5 790.5q-82.5 -39.5 -142.5 -107.5t-88 -148.5t-24.5 -171.5t43 -173.5t108 -142.5t148.5 -88t171 -24.5t173.5 43t142.5 108t88.5 148.5t24.5 171t-43.5 173.5t-107.5 142.5t-148.5 88t-171.5 24.5t-173.5 -43zM444 193l-42 -20l-215 198l41 20q176 -172 180 -175
h2q-2 7 -27 249l42 20zM610 273l-37 -18l-117 245l37 17zM721 439l-62 -30l44 -92l-38 -18l-117 245l104 49q84 36 122 -32q36 -78 -53 -122zM658 559l-58 -27l45 -93l57 27q54 28 33 75q-23 43 -77 18z" />
    <glyph glyph-name="huiyuanwusijiao" unicode="&#xe6c6;" 
d="M423 429l76 -43l6 87l-76 44zM869 487l-172 323q-9 16 -26 6q-9 -5 -11 -14l-1 -1v0l-78 -157l-273 146q-5 3 -11 3q-7 -1 -13 -4q-2 -1 -5 -5l-1 -1q-3 -6 -4 -12l-32 -307l-176 24h-3h-3q-6 0 -10 -2q-17 -9 -13 -27l172 -323l659 351h1zM280 250l-72 -38l-16 29l72 39
q4 2 8 2q11 0 15 -9q2 -4 2 -8q0 -10 -9 -15v0zM542 482l-9 -127q0 -7 -5.5 -12t-12.5 -5q-5 0 -9 2l-111 64q-9 5 -9 15v2l9 127q1 9 10 14v0q9 5 17 1l111 -64q9 -5 9 -15v-2v0zM805 529l-73 -38q-3 -2 -8 -2q-10 0 -14 9q-2 3 -2 8q0 10 8 14l73 39zM887 459l-2 -1
q-1 0 -1 -0.5v-0.5l-662 -352q-20 -10 -20 -32q0 -10 5 -18l46 -87q11 -20 33 -20q9 0 17 5l665 354q20 10 20 32q0 9 -5 17l-46 88q-7 12 -21.5 16.5t-28.5 -1.5z" />
    <glyph glyph-name="kechengon" unicode="&#xe6ca;" 
d="M757 553q0 -18 -7.5 -22t-14.5 0l-7 5q-55 55 -69 55q-7 0 -24.5 -14t-31.5 -28l-14 -13q-1 -1 -3 -2.5t-6.5 -3t-8.5 -1t-7 6.5t-3 17v234h107q47 0 89 -24v-210zM713 362h-405q-9 0 -16 6.5t-7 15.5t7 15.5t16 6.5h405q9 0 15.5 -6.5t6.5 -15.5t-6.5 -15.5t-15.5 -6.5z
M713 241h-405q-9 0 -15.5 6.5t-6.5 15.5t6.5 15.5t15.5 7.5h405v0q9 0 15.5 -7t6.5 -16t-6.5 -15.5t-15.5 -6.5v0zM713 120h-405q-9 0 -16 6.5t-7 15.5t7 16t16 7h405q9 0 15.5 -7t6.5 -16t-6.5 -15.5t-15.5 -6.5zM670 834h-316q-93 0 -158.5 -66t-65.5 -159v-450
q0 -93 65.5 -159t158.5 -66h316q93 0 158.5 66t65.5 159v450q0 93 -65.5 159t-158.5 66v0z" />
    <glyph glyph-name="tianjiadaiyuyue" unicode="&#xe6e6;" 
d="M994 143h-145v-144h-96v144h-145v96h145v145h96v-145h145v-96zM705 288h-145v-193h145v-96h-614h-6t-14.5 3.5t-19 9t-15 18t-6.5 28.5v574q0 3 1 7t4.5 14t9.5 18t18 14.5t28 6.5h30v-104q0 -1 0.5 -4.5t3 -11t7 -13.5t13.5 -11t22 -5h90h5t11 2.5t14 7t11 13.5t5 22
v104h276v-105v-5t2.5 -10.5t6.5 -13t14 -10.5t23 -5h92q1 0 4 0.5t10.5 3t13.5 6.5t11 13t5 22v104h29h7t14 -3t17.5 -8.5t14 -18t6.5 -30.5v-200h-144v-144v0zM670 566q-22 0 -38 19t-16 46v73q0 28 15 46.5t37 18.5q23 0 39.5 -19t16.5 -46v-73q0 -27 -16 -46t-38 -19z
M209.5 566q-22.5 0 -38 19t-15.5 46v73q0 27 15.5 46t38 19t38 -19t15.5 -46v-73q0 -27 -15.5 -46t-38 -19z" />
    <glyph glyph-name="email" unicode="&#xe6e9;" 
d="M145 747h734q37 0 64 -26.5t27 -63.5l-458 -253l-458 253q0 37 27 63.5t64 26.5zM54 560v-448q0 -38 26.5 -64.5t64.5 -26.5h734q38 0 64.5 26.5t26.5 64.5v448l-447 -241q-5 -3 -11 -3t-11 3z" />
    <glyph glyph-name="new" unicode="&#xe6ea;" 
d="M1008 455l-130 -336h-110q10 81 22 162q-16 -45 -35 -89l-30 -73h-110l45 336h88q-3 -15 -29 -193q7 21 74 193h84l-31 -193q27 85 74 193h88zM609 289h-139l-20 -81q-7 -26 -5.5 -33.5t11.5 -7.5h1q12 0 18 10q7 10 14 38l12 50h102l-7 -28q-9 -36 -18 -54
q-8 -18 -29 -40q-20 -20 -46 -31t-61 -11q-34 0 -57.5 10.5t-33.5 28.5q-10 19 -10 40v0q0 22 11 64l27 110q12 49 32 78q8 12 23.5 24.5t28.5 18.5q32 15 68 15h1q45 0 70 -18t29 -48t-10 -85zM520 424q-11 0 -15.5 -7.5t-12.5 -38.5l-7 -28h32l7 28q7 29 6 37.5t-10 8.5z
M431 500q-35 -17 -56.5 -47t-35.5 -83l-30 -116q-12 -45 -12 -68t11 -42.5t37 -31.5h1h1l-3 -11h-128l-8 257l-69 -257h-123l151 566h123l14 -255l68 255h123l-42 -159q-13 -4 -22 -8z" />
  </font>
</defs>
</svg>
